<svg xmlns="http://www.w3.org/2000/svg" width="720" height="450" viewBox="0 0 720 450"><rect x="0" y="0" width="720" height="450" fill="#ffffff"/><line x1="125.1" y1="44" x2="125.1" y2="396" stroke="#e6e6e6" stroke-width="1"/><text x="125.1" y="412" font-size="10.5" fill="#222" text-anchor="middle" font-family="Helvetica,Arial,sans-serif">0.02</text><line x1="229.4" y1="44" x2="229.4" y2="396" stroke="#e6e6e6" stroke-width="1"/><text x="229.4" y="412" font-size="10.5" fill="#222" text-anchor="middle" font-family="Helvetica,Arial,sans-serif">0.05</text><line x1="308.3" y1="44" x2="308.3" y2="396" stroke="#e6e6e6" stroke-width="1"/><text x="308.3" y="412" font-size="10.5" fill="#222" text-anchor="middle" font-family="Helvetica,Arial,sans-serif">0.1</text><line x1="387.2" y1="44" x2="387.2" y2="396" stroke="#e6e6e6" stroke-width="1"/><text x="387.2" y="412" font-size="10.5" fill="#222" text-anchor="middle" font-family="Helvetica,Arial,sans-serif">0.2</text><line x1="491.6" y1="44" x2="491.6" y2="396" stroke="#e6e6e6" stroke-width="1"/><text x="491.6" y="412" font-size="10.5" fill="#222" text-anchor="middle" font-family="Helvetica,Arial,sans-serif">0.5</text><line x1="76" y1="345.3" x2="552" y2="345.3" stroke="#e6e6e6" stroke-width="1"/><text x="69" y="348.8" font-size="10.5" fill="#222" text-anchor="end" font-family="Helvetica,Arial,sans-serif">60</text><line x1="76" y1="276.8" x2="552" y2="276.8" stroke="#e6e6e6" stroke-width="1"/><text x="69" y="280.3" font-size="10.5" fill="#222" text-anchor="end" font-family="Helvetica,Arial,sans-serif">70</text><line x1="76" y1="208.4" x2="552" y2="208.4" stroke="#e6e6e6" stroke-width="1"/><text x="69" y="211.9" font-size="10.5" fill="#222" text-anchor="end" font-family="Helvetica,Arial,sans-serif">80</text><line x1="76" y1="139.9" x2="552" y2="139.9" stroke="#e6e6e6" stroke-width="1"/><text x="69" y="143.4" font-size="10.5" fill="#222" text-anchor="end" font-family="Helvetica,Arial,sans-serif">90</text><line x1="76" y1="71.4" x2="552" y2="71.4" stroke="#e6e6e6" stroke-width="1"/><text x="69" y="74.9" font-size="10.5" fill="#222" text-anchor="end" font-family="Helvetica,Arial,sans-serif">100</text><rect x="76" y="44" width="476" height="352" fill="none" stroke="#111" stroke-width="1.2"/><text x="314.0" y="434" font-size="11.5" fill="#111" text-anchor="middle" font-family="Helvetica,Arial,sans-serif">avg_time   [ s / control step ]   (log)</text><text x="16" y="220.0" font-size="11.5" fill="#111" text-anchor="middle" font-family="Helvetica,Arial,sans-serif" transform="rotate(-90 16 220.0)">n_steps   [ control steps / episode ]</text><text x="76" y="20" font-size="13" font-weight="bold" fill="#111" font-family="Helvetica,Arial,sans-serif">Fig 1 — Pareto front, top-left-hard</text><text x="76" y="35" font-size="10.5" fill="#555" font-family="Helvetica,Arial,sans-serif">lower is better on both axes; eligible = S&amp;C within 0.05 of the best S&amp;C in the panel</text><polyline points="113.4,278.2 118.1,278.2 118.1,354.9" fill="none" stroke="#222" stroke-width="1.3" stroke-dasharray="5,4"/><circle cx="113.4" cy="278.2" r="11.0" fill="none" stroke="#222" stroke-width="1.1"/><circle cx="118.1" cy="354.9" r="11.0" fill="none" stroke="#222" stroke-width="1.1"/><circle cx="203.8" cy="207.0" r="5.5" fill="#ffffff" stroke="#c0392b" stroke-width="1.4"/><text x="211.8" y="200.0" font-size="8.5" fill="#999" text-anchor="start" font-family="Helvetica,Arial,sans-serif">D1c</text><rect x="176.6" y="257.0" width="11.0" height="11.0" fill="#ffffff" stroke="#c0392b" stroke-width="1.4"/><text x="190.1" y="255.5" font-size="8.5" fill="#999" text-anchor="start" font-family="Helvetica,Arial,sans-serif">D1t</text><circle cx="439.6" cy="280.9" r="5.5" fill="#c0392b" stroke="#111" stroke-width="1.4"/><text x="447.6" y="273.9" font-size="8.5" fill="#111" text-anchor="start" font-family="Helvetica,Arial,sans-serif">D10c</text><rect x="450.3" y="276.1" width="11.0" height="11.0" fill="#c0392b" stroke="#111" stroke-width="1.4"/><text x="463.8" y="274.6" font-size="8.5" fill="#111" text-anchor="start" font-family="Helvetica,Arial,sans-serif">D10t</text><circle cx="505.6" cy="287.8" r="5.5" fill="#c0392b" stroke="#111" stroke-width="1.4"/><text x="513.6" y="280.8" font-size="8.5" fill="#111" text-anchor="start" font-family="Helvetica,Arial,sans-serif">D20c</text><rect x="498.5" y="217.2" width="11.0" height="11.0" fill="#c0392b" stroke="#111" stroke-width="1.4"/><text x="512.0" y="215.7" font-size="8.5" fill="#111" text-anchor="start" font-family="Helvetica,Arial,sans-serif">D20t</text><circle cx="467.1" cy="304.9" r="5.5" fill="#2471a3" stroke="#111" stroke-width="1.4"/><text x="475.1" y="297.9" font-size="8.5" fill="#111" text-anchor="start" font-family="Helvetica,Arial,sans-serif">F20c</text><rect x="477.0" y="304.9" width="11.0" height="11.0" fill="#2471a3" stroke="#111" stroke-width="1.4"/><text x="490.5" y="303.4" font-size="8.5" fill="#111" text-anchor="start" font-family="Helvetica,Arial,sans-serif">F20t</text><circle cx="113.4" cy="278.2" r="5.5" fill="#1e8449" stroke="#111" stroke-width="1.4"/><text x="121.4" y="271.2" font-size="8.5" fill="#111" text-anchor="start" font-family="Helvetica,Arial,sans-serif" font-weight="bold">M1c</text><rect x="112.6" y="349.4" width="11.0" height="11.0" fill="#1e8449" stroke="#111" stroke-width="1.4"/><text x="126.1" y="347.9" font-size="8.5" fill="#111" text-anchor="start" font-family="Helvetica,Arial,sans-serif" font-weight="bold">M1t</text><circle cx="159.8" cy="98.8" r="5.5" fill="#1e8449" stroke="#111" stroke-width="1.4"/><text x="167.8" y="91.8" font-size="8.5" fill="#111" text-anchor="start" font-family="Helvetica,Arial,sans-serif">M2c</text><rect x="156.3" y="347.4" width="11.0" height="11.0" fill="#1e8449" stroke="#111" stroke-width="1.4"/><text x="169.8" y="345.9" font-size="8.5" fill="#111" text-anchor="start" font-family="Helvetica,Arial,sans-serif">M2t</text><circle cx="400.3" cy="339.2" r="5.5" fill="#1e8449" stroke="#111" stroke-width="1.4"/><text x="408.3" y="332.2" font-size="8.5" fill="#111" text-anchor="start" font-family="Helvetica,Arial,sans-serif">M5c</text><rect x="398.4" y="342.6" width="11.0" height="11.0" fill="#1e8449" stroke="#111" stroke-width="1.4"/><text x="411.9" y="341.1" font-size="8.5" fill="#111" text-anchor="start" font-family="Helvetica,Arial,sans-serif">M5t</text><circle cx="464.3" cy="354.2" r="5.5" fill="#1e8449" stroke="#111" stroke-width="1.4"/><text x="472.3" y="347.2" font-size="8.5" fill="#111" text-anchor="start" font-family="Helvetica,Arial,sans-serif">M10c</text><rect x="459.7" y="323.4" width="11.0" height="11.0" fill="#1e8449" stroke="#111" stroke-width="1.4"/><text x="473.2" y="321.9" font-size="8.5" fill="#111" text-anchor="start" font-family="Helvetica,Arial,sans-serif">M10t</text><text x="564.0" y="54.0" font-size="9.5" fill="#111" text-anchor="start" font-family="Helvetica,Arial,sans-serif" font-weight="bold">runs  (all n_trials = 2)</text><circle cx="569.0" cy="69.0" r="4.5" fill="#c0392b" stroke="#111" stroke-width="1.4"/><text x="578.0" y="72.0" font-size="8.5" fill="#222" text-anchor="start" font-family="Helvetica,Arial,sans-serif">D1 = DPCC K1</text><circle cx="569.0" cy="84.0" r="4.5" fill="#c0392b" stroke="#111" stroke-width="1.4"/><text x="578.0" y="87.0" font-size="8.5" fill="#222" text-anchor="start" font-family="Helvetica,Arial,sans-serif">D10 = DPCC K10</text><circle cx="569.0" cy="99.0" r="4.5" fill="#c0392b" stroke="#111" stroke-width="1.4"/><text x="578.0" y="102.0" font-size="8.5" fill="#222" text-anchor="start" font-family="Helvetica,Arial,sans-serif">D20 = DPCC K20</text><circle cx="569.0" cy="114.0" r="4.5" fill="#2471a3" stroke="#111" stroke-width="1.4"/><text x="578.0" y="117.0" font-size="8.5" fill="#222" text-anchor="start" font-family="Helvetica,Arial,sans-serif">F20 = naive FM K20</text><circle cx="569.0" cy="129.0" r="4.5" fill="#1e8449" stroke="#111" stroke-width="1.4"/><text x="578.0" y="132.0" font-size="8.5" fill="#222" text-anchor="start" font-family="Helvetica,Arial,sans-serif">M1 = MF-UNet K1</text><circle cx="569.0" cy="144.0" r="4.5" fill="#1e8449" stroke="#111" stroke-width="1.4"/><text x="578.0" y="147.0" font-size="8.5" fill="#222" text-anchor="start" font-family="Helvetica,Arial,sans-serif">M2 = MF-UNet K2</text><circle cx="569.0" cy="159.0" r="4.5" fill="#1e8449" stroke="#111" stroke-width="1.4"/><text x="578.0" y="162.0" font-size="8.5" fill="#222" text-anchor="start" font-family="Helvetica,Arial,sans-serif">M5 = MF-UNet K5</text><circle cx="569.0" cy="174.0" r="4.5" fill="#1e8449" stroke="#111" stroke-width="1.4"/><text x="578.0" y="177.0" font-size="8.5" fill="#222" text-anchor="start" font-family="Helvetica,Arial,sans-serif">M10 = MF-UNet K10</text><text x="564.0" y="201.0" font-size="9.5" fill="#111" text-anchor="start" font-family="Helvetica,Arial,sans-serif" font-weight="bold">selection rule</text><circle cx="569.0" cy="216.0" r="4.5" fill="#666" stroke="#111" stroke-width="1.4"/><text x="578.0" y="219.0" font-size="8.5" fill="#222" text-anchor="start" font-family="Helvetica,Arial,sans-serif">c = min-proj-cost</text><rect x="564.5" y="227.5" width="9.0" height="9.0" fill="#666" stroke="#111" stroke-width="1.4"/><text x="578.0" y="235.0" font-size="8.5" fill="#222" text-anchor="start" font-family="Helvetica,Arial,sans-serif">t = temporal-consist.</text><circle cx="569.0" cy="256.0" r="4.5" fill="#ffffff" stroke="#666" stroke-width="1.4"/><text x="578.0" y="259.0" font-size="8.5" fill="#222" text-anchor="start" font-family="Helvetica,Arial,sans-serif">S&amp;C &lt; 0.95 (excl.)</text><circle cx="569.0" cy="279.0" r="8" fill="none" stroke="#222" stroke-width="1.1"/><text x="578.0" y="282.0" font-size="8.5" fill="#222" text-anchor="start" font-family="Helvetica,Arial,sans-serif">on Pareto front</text></svg>