<svg xmlns="http://www.w3.org/2000/svg" width="760" height="470" viewBox="0 0 760 470"><rect x="0" y="0" width="760" height="470" fill="#ffffff"/><line x1="128.0" y1="44" x2="128.0" y2="416" stroke="#e6e6e6" stroke-width="1"/><text x="128.0" y="432" font-size="10.5" fill="#222" text-anchor="middle" font-family="Helvetica,Arial,sans-serif">0.02</text><line x1="233.7" y1="44" x2="233.7" y2="416" stroke="#e6e6e6" stroke-width="1"/><text x="233.7" y="432" font-size="10.5" fill="#222" text-anchor="middle" font-family="Helvetica,Arial,sans-serif">0.05</text><line x1="313.6" y1="44" x2="313.6" y2="416" stroke="#e6e6e6" stroke-width="1"/><text x="313.6" y="432" font-size="10.5" fill="#222" text-anchor="middle" font-family="Helvetica,Arial,sans-serif">0.1</text><line x1="393.5" y1="44" x2="393.5" y2="416" stroke="#e6e6e6" stroke-width="1"/><text x="393.5" y="432" font-size="10.5" fill="#222" text-anchor="middle" font-family="Helvetica,Arial,sans-serif">0.2</text><line x1="499.2" y1="44" x2="499.2" y2="416" stroke="#e6e6e6" stroke-width="1"/><text x="499.2" y="432" font-size="10.5" fill="#222" text-anchor="middle" font-family="Helvetica,Arial,sans-serif">0.5</text><line x1="76" y1="393.6" x2="570" y2="393.6" stroke="#e6e6e6" stroke-width="1"/><text x="69" y="397.1" font-size="10.5" fill="#222" text-anchor="end" font-family="Helvetica,Arial,sans-serif">55</text><line x1="76" y1="359.9" x2="570" y2="359.9" stroke="#e6e6e6" stroke-width="1"/><text x="69" y="363.4" font-size="10.5" fill="#222" text-anchor="end" font-family="Helvetica,Arial,sans-serif">60</text><line x1="76" y1="326.1" x2="570" y2="326.1" stroke="#e6e6e6" stroke-width="1"/><text x="69" y="329.6" font-size="10.5" fill="#222" text-anchor="end" font-family="Helvetica,Arial,sans-serif">65</text><line x1="76" y1="292.4" x2="570" y2="292.4" stroke="#e6e6e6" stroke-width="1"/><text x="69" y="295.9" font-size="10.5" fill="#222" text-anchor="end" font-family="Helvetica,Arial,sans-serif">70</text><line x1="76" y1="258.6" x2="570" y2="258.6" stroke="#e6e6e6" stroke-width="1"/><text x="69" y="262.1" font-size="10.5" fill="#222" text-anchor="end" font-family="Helvetica,Arial,sans-serif">75</text><line x1="76" y1="224.9" x2="570" y2="224.9" stroke="#e6e6e6" stroke-width="1"/><text x="69" y="228.4" font-size="10.5" fill="#222" text-anchor="end" font-family="Helvetica,Arial,sans-serif">80</text><line x1="76" y1="191.2" x2="570" y2="191.2" stroke="#e6e6e6" stroke-width="1"/><text x="69" y="194.7" font-size="10.5" fill="#222" text-anchor="end" font-family="Helvetica,Arial,sans-serif">85</text><line x1="76" y1="157.4" x2="570" y2="157.4" stroke="#e6e6e6" stroke-width="1"/><text x="69" y="160.9" font-size="10.5" fill="#222" text-anchor="end" font-family="Helvetica,Arial,sans-serif">90</text><line x1="76" y1="123.7" x2="570" y2="123.7" stroke="#e6e6e6" stroke-width="1"/><text x="69" y="127.2" font-size="10.5" fill="#222" text-anchor="end" font-family="Helvetica,Arial,sans-serif">95</text><line x1="76" y1="90.0" x2="570" y2="90.0" stroke="#e6e6e6" stroke-width="1"/><text x="69" y="93.5" font-size="10.5" fill="#222" text-anchor="end" font-family="Helvetica,Arial,sans-serif">100</text><line x1="76" y1="56.2" x2="570" y2="56.2" stroke="#e6e6e6" stroke-width="1"/><text x="69" y="59.7" font-size="10.5" fill="#222" text-anchor="end" font-family="Helvetica,Arial,sans-serif">105</text><rect x="76" y="44" width="494" height="372" fill="none" stroke="#111" stroke-width="1.2"/><text x="323.0" y="454" font-size="11.5" fill="#111" text-anchor="middle" font-family="Helvetica,Arial,sans-serif">per-step wall clock  [ s ]   (log, lower is better)</text><text x="16" y="230.0" font-size="11.5" fill="#111" text-anchor="middle" font-family="Helvetica,Arial,sans-serif" transform="rotate(-90 16 230.0)">control steps to task completion   (lower is better)</text><text x="76" y="20" font-size="13" font-weight="bold" fill="#111" font-family="Helvetica,Arial,sans-serif">Cost/quality frontier, state-based manipulation (both-hard)</text><text x="76" y="35" font-size="10.5" fill="#555" font-family="Helvetica,Arial,sans-serif">5 seeds (6-10) x 20 trials = 100 episodes per cell; geometry-mean over both-hard. Backbone U-Net 4.0M throughout.</text><polyline points="117.1,368.3 162.0,368.3 162.0,373.2 404.8,373.2 404.8,382.3" fill="none" stroke="#222" stroke-width="1.3" stroke-dasharray="5,4"/><circle cx="117.1" cy="368.3" r="11.0" fill="none" stroke="#222" stroke-width="1.1"/><circle cx="162.0" cy="373.2" r="11.0" fill="none" stroke="#222" stroke-width="1.1"/><circle cx="404.8" cy="382.3" r="11.0" fill="none" stroke="#222" stroke-width="1.1"/><circle cx="523.2" cy="364.2" r="5.5" fill="#c0392b" stroke="#111" stroke-width="1.4"/><text x="531.2" y="357.2" font-size="8.0" fill="#111" text-anchor="start" font-family="Helvetica,Arial,sans-serif">D20c</text><text x="531.2" y="376.2" font-size="8.0" fill="#c0392b" text-anchor="start" font-family="Helvetica,Arial,sans-serif" font-weight="bold">pinned baseline</text><circle cx="464.8" cy="363.2" r="5.5" fill="#ffffff" stroke="#1e8449" stroke-width="1.4"/><text x="472.8" y="356.2" font-size="8.0" fill="#aaa" text-anchor="start" font-family="Helvetica,Arial,sans-serif">M10c</text><rect x="463.2" y="367.0" width="11.0" height="11.0" fill="#1e8449" stroke="#111" stroke-width="1.4"/><text x="476.7" y="365.5" font-size="8.0" fill="#111" text-anchor="start" font-family="Helvetica,Arial,sans-serif">M10t</text><circle cx="118.9" cy="275.4" r="5.5" fill="#ffffff" stroke="#1e8449" stroke-width="1.4"/><text x="126.9" y="268.4" font-size="8.0" fill="#aaa" text-anchor="start" font-family="Helvetica,Arial,sans-serif">M1c</text><rect x="111.6" y="362.8" width="11.0" height="11.0" fill="#1e8449" stroke="#111" stroke-width="1.4"/><text x="125.1" y="361.3" font-size="8.0" fill="#111" text-anchor="start" font-family="Helvetica,Arial,sans-serif" font-weight="bold">M1t</text><circle cx="161.9" cy="98.0" r="5.5" fill="#ffffff" stroke="#1e8449" stroke-width="1.4"/><text x="169.9" y="91.0" font-size="8.0" fill="#aaa" text-anchor="start" font-family="Helvetica,Arial,sans-serif">M2c</text><rect x="156.5" y="367.7" width="11.0" height="11.0" fill="#1e8449" stroke="#111" stroke-width="1.4"/><text x="170.0" y="366.2" font-size="8.0" fill="#111" text-anchor="start" font-family="Helvetica,Arial,sans-serif" font-weight="bold">M2t</text><circle cx="405.8" cy="361.4" r="5.5" fill="#ffffff" stroke="#1e8449" stroke-width="1.4"/><text x="413.8" y="354.4" font-size="8.0" fill="#aaa" text-anchor="start" font-family="Helvetica,Arial,sans-serif">M5c</text><rect x="399.3" y="376.8" width="11.0" height="11.0" fill="#1e8449" stroke="#111" stroke-width="1.4"/><text x="412.8" y="375.3" font-size="8.0" fill="#111" text-anchor="start" font-family="Helvetica,Arial,sans-serif" font-weight="bold">M5t</text><circle cx="124.6" cy="322.7" r="5.5" fill="#2471a3" stroke="#111" stroke-width="1.4"/><text x="132.6" y="315.7" font-size="8.0" fill="#111" text-anchor="start" font-family="Helvetica,Arial,sans-serif">F1c</text><rect x="124.4" y="320.4" width="11.0" height="11.0" fill="#2471a3" stroke="#111" stroke-width="1.4"/><text x="137.9" y="318.9" font-size="8.0" fill="#111" text-anchor="start" font-family="Helvetica,Arial,sans-serif">F1t</text><circle cx="518.7" cy="370.1" r="5.5" fill="#2471a3" stroke="#111" stroke-width="1.4"/><text x="526.7" y="363.1" font-size="8.0" fill="#111" text-anchor="start" font-family="Helvetica,Arial,sans-serif">F20c</text><rect x="509.8" y="354.5" width="11.0" height="11.0" fill="#2471a3" stroke="#111" stroke-width="1.4"/><text x="523.3" y="353.0" font-size="8.0" fill="#111" text-anchor="start" font-family="Helvetica,Arial,sans-serif">F20t</text><circle cx="167.2" cy="305.6" r="5.5" fill="#2471a3" stroke="#111" stroke-width="1.4"/><text x="175.2" y="298.6" font-size="8.0" fill="#111" text-anchor="start" font-family="Helvetica,Arial,sans-serif">F2c</text><rect x="161.7" y="334.2" width="11.0" height="11.0" fill="#2471a3" stroke="#111" stroke-width="1.4"/><text x="175.2" y="332.7" font-size="8.0" fill="#111" text-anchor="start" font-family="Helvetica,Arial,sans-serif">F2t</text><circle cx="350.2" cy="351.1" r="5.5" fill="#2471a3" stroke="#111" stroke-width="1.4"/><text x="358.2" y="344.1" font-size="8.0" fill="#111" text-anchor="start" font-family="Helvetica,Arial,sans-serif">F5c</text><rect x="345.4" y="367.3" width="11.0" height="11.0" fill="#2471a3" stroke="#111" stroke-width="1.4"/><text x="358.9" y="365.8" font-size="8.0" fill="#111" text-anchor="start" font-family="Helvetica,Arial,sans-serif">F5t</text><text x="584.0" y="48.0" font-size="10" fill="#111" text-anchor="start" font-family="Helvetica,Arial,sans-serif" font-weight="bold">engine</text><circle cx="591.0" cy="64.0" r="5.0" fill="#1e8449" stroke="#111" stroke-width="1.4"/><text x="602.0" y="67.5" font-size="9.5" fill="#111" text-anchor="start" font-family="Helvetica,Arial,sans-serif">MeanFlow</text><circle cx="591.0" cy="81.0" r="5.0" fill="#2471a3" stroke="#111" stroke-width="1.4"/><text x="602.0" y="84.5" font-size="9.5" fill="#111" text-anchor="start" font-family="Helvetica,Arial,sans-serif">flow matching</text><circle cx="591.0" cy="98.0" r="5.0" fill="#c0392b" stroke="#111" stroke-width="1.4"/><text x="602.0" y="101.5" font-size="9.5" fill="#111" text-anchor="start" font-family="Helvetica,Arial,sans-serif">diffusion (DPCC baseline)</text><text x="584.0" y="132.0" font-size="10" fill="#111" text-anchor="start" font-family="Helvetica,Arial,sans-serif" font-weight="bold">selection rule</text><circle cx="591.0" cy="148.0" r="5.0" fill="#777" stroke="#111" stroke-width="1.4"/><text x="602.0" y="151.5" font-size="9.5" fill="#111" text-anchor="start" font-family="Helvetica,Arial,sans-serif">cumulative cost</text><rect x="586.0" y="160.0" width="10.0" height="10.0" fill="#777" stroke="#111" stroke-width="1.4"/><text x="602.0" y="168.5" font-size="9.5" fill="#111" text-anchor="start" font-family="Helvetica,Arial,sans-serif">temporal consistency</text><text x="584.0" y="192.0" font-size="9" fill="#555" text-anchor="start" font-family="Helvetica,Arial,sans-serif">tag = engine, K, rule</text><text x="584.0" y="210.0" font-size="9" fill="#555" text-anchor="start" font-family="Helvetica,Arial,sans-serif">hollow = outside the</text><text x="584.0" y="222.0" font-size="9" fill="#555" text-anchor="start" font-family="Helvetica,Arial,sans-serif">0.05 success band</text><text x="584.0" y="240.0" font-size="9" fill="#555" text-anchor="start" font-family="Helvetica,Arial,sans-serif">ring = on the frontier</text></svg>