<svg xmlns="http://www.w3.org/2000/svg" width="760" height="470" viewBox="0 0 760 470"><rect x="0" y="0" width="760" height="470" fill="#ffffff"/><line x1="110.1" y1="44" x2="110.1" y2="416" stroke="#e6e6e6" stroke-width="1"/><text x="110.1" y="432" font-size="10.5" fill="#222" text-anchor="middle" font-family="Helvetica,Arial,sans-serif">1</text><line x1="216.0" y1="44" x2="216.0" y2="416" stroke="#e6e6e6" stroke-width="1"/><text x="216.0" y="432" font-size="10.5" fill="#222" text-anchor="middle" font-family="Helvetica,Arial,sans-serif">2</text><line x1="356.1" y1="44" x2="356.1" y2="416" stroke="#e6e6e6" stroke-width="1"/><text x="356.1" y="432" font-size="10.5" fill="#222" text-anchor="middle" font-family="Helvetica,Arial,sans-serif">5</text><line x1="462.0" y1="44" x2="462.0" y2="416" stroke="#e6e6e6" stroke-width="1"/><text x="462.0" y="432" font-size="10.5" fill="#222" text-anchor="middle" font-family="Helvetica,Arial,sans-serif">10</text><line x1="567.9" y1="44" x2="567.9" y2="416" stroke="#e6e6e6" stroke-width="1"/><text x="567.9" y="432" font-size="10.5" fill="#222" text-anchor="middle" font-family="Helvetica,Arial,sans-serif">20</text><line x1="76" y1="378.0" x2="608" y2="378.0" stroke="#e6e6e6" stroke-width="1"/><text x="69" y="381.5" font-size="10.5" fill="#222" text-anchor="end" font-family="Helvetica,Arial,sans-serif">0.60</text><line x1="76" y1="302.1" x2="608" y2="302.1" stroke="#e6e6e6" stroke-width="1"/><text x="69" y="305.6" font-size="10.5" fill="#222" text-anchor="end" font-family="Helvetica,Arial,sans-serif">0.70</text><line x1="76" y1="226.2" x2="608" y2="226.2" stroke="#e6e6e6" stroke-width="1"/><text x="69" y="229.7" font-size="10.5" fill="#222" text-anchor="end" font-family="Helvetica,Arial,sans-serif">0.80</text><line x1="76" y1="150.3" x2="608" y2="150.3" stroke="#e6e6e6" stroke-width="1"/><text x="69" y="153.8" font-size="10.5" fill="#222" text-anchor="end" font-family="Helvetica,Arial,sans-serif">0.90</text><line x1="76" y1="74.4" x2="608" y2="74.4" stroke="#e6e6e6" stroke-width="1"/><text x="69" y="77.9" font-size="10.5" fill="#222" text-anchor="end" font-family="Helvetica,Arial,sans-serif">1.00</text><rect x="76" y="44" width="532" height="372" fill="none" stroke="#111" stroke-width="1.2"/><text x="342.0" y="454" font-size="11.5" fill="#111" text-anchor="middle" font-family="Helvetica,Arial,sans-serif">step budget K  [ network evaluations per plan ]   (log)</text><text x="16" y="230.0" font-size="11.5" fill="#111" text-anchor="middle" font-family="Helvetica,Arial,sans-serif" transform="rotate(-90 16 230.0)">success and constraint satisfaction</text><text x="76" y="20" font-size="13" font-weight="bold" fill="#111" font-family="Helvetica,Arial,sans-serif">Success against step budget, obstacle avoidance</text><text x="76" y="35" font-size="10.5" fill="#555" font-family="Helvetica,Arial,sans-serif">5 seeds (6-10) x 20 episodes; geometry mean; tightened; U-Net 4.0M.</text><polyline points="110.1,327.4 462.0,74.4 567.9,74.4" fill="none" stroke="#17202a" stroke-width="1.6" stroke-dasharray="5,4"/><circle cx="110.1" cy="327.4" r="5.0" fill="#ffffff" stroke="#17202a" stroke-width="1.4"/><circle cx="462.0" cy="74.4" r="5.0" fill="#ffffff" stroke="#17202a" stroke-width="1.4"/><circle cx="567.9" cy="74.4" r="5.0" fill="#ffffff" stroke="#17202a" stroke-width="1.4"/><polyline points="110.1,79.4 216.0,79.4 356.1,89.6 462.0,94.6 567.9,108.5" fill="none" stroke="#5d6d7e" stroke-width="1.9"/><rect x="105.1" y="74.4" width="10.0" height="10.0" fill="#5d6d7e" stroke="#111" stroke-width="1.4"/><rect x="211.0" y="74.4" width="10.0" height="10.0" fill="#5d6d7e" stroke="#111" stroke-width="1.4"/><rect x="351.1" y="84.6" width="10.0" height="10.0" fill="#5d6d7e" stroke="#111" stroke-width="1.4"/><rect x="457.0" y="89.6" width="10.0" height="10.0" fill="#5d6d7e" stroke="#111" stroke-width="1.4"/><rect x="562.9" y="103.5" width="10.0" height="10.0" fill="#ffffff" stroke="#5d6d7e" stroke-width="1.4"/><polyline points="110.1,82.0 216.0,87.0 356.1,74.4 567.9,84.5" fill="none" stroke="#34495e" stroke-width="1.9"/><rect x="105.1" y="77.0" width="10.0" height="10.0" fill="#34495e" stroke="#111" stroke-width="1.4"/><rect x="211.0" y="82.0" width="10.0" height="10.0" fill="#34495e" stroke="#111" stroke-width="1.4"/><rect x="351.1" y="69.4" width="10.0" height="10.0" fill="#34495e" stroke="#111" stroke-width="1.4"/><rect x="562.9" y="79.5" width="10.0" height="10.0" fill="#34495e" stroke="#111" stroke-width="1.4"/><polyline points="567.9,87.0" fill="none" stroke="#17202a" stroke-width="1.9"/><rect x="562.9" y="82.0" width="10.0" height="10.0" fill="#17202a" stroke="#111" stroke-width="1.4"/><polyline points="110.1,112.3 216.0,74.4 356.1,87.0 462.0,87.0 567.9,112.3" fill="none" stroke="#283747" stroke-width="1.7" stroke-dasharray="2,3"/><polygon points="110.1,107.1 115.3,116.5 104.9,116.5" fill="#ffffff" stroke="#283747" stroke-width="1.4"/><polygon points="216.0,69.2 221.2,78.5 210.8,78.5" fill="#ffffff" stroke="#283747" stroke-width="1.4"/><polygon points="356.1,81.8 361.3,91.2 350.9,91.2" fill="#ffffff" stroke="#283747" stroke-width="1.4"/><polygon points="462.0,81.8 467.2,91.2 456.8,91.2" fill="#ffffff" stroke="#283747" stroke-width="1.4"/><polygon points="567.9,107.1 573.1,116.5 562.7,116.5" fill="#ffffff" stroke="#283747" stroke-width="1.4"/><text x="622.0" y="48.0" font-size="10" fill="#111" text-anchor="start" font-family="Helvetica,Arial,sans-serif" font-weight="bold">model</text><rect x="624.0" y="59.0" width="10.0" height="10.0" fill="#5d6d7e" stroke="#111" stroke-width="1.4"/><text x="640.0" y="67.5" font-size="9.5" fill="#111" text-anchor="start" font-family="Helvetica,Arial,sans-serif">MeanFM</text><rect x="624.0" y="76.0" width="10.0" height="10.0" fill="#34495e" stroke="#111" stroke-width="1.4"/><text x="640.0" y="84.5" font-size="9.5" fill="#111" text-anchor="start" font-family="Helvetica,Arial,sans-serif">FM</text><rect x="624.0" y="93.0" width="10.0" height="10.0" fill="#17202a" stroke="#111" stroke-width="1.4"/><text x="640.0" y="101.5" font-size="9.5" fill="#111" text-anchor="start" font-family="Helvetica,Arial,sans-serif">Diffusion</text><polygon points="629.0,110.0 634.0,119.0 624.0,119.0" fill="#283747" stroke="#111" stroke-width="1.4"/><text x="640.0" y="118.5" font-size="9.5" fill="#111" text-anchor="start" font-family="Helvetica,Arial,sans-serif">CI-MeanFM, seed 6</text></svg>