<svg xmlns="http://www.w3.org/2000/svg" width="1090" height="912" viewBox="0 0 1090 912"><rect x="0" y="0" width="1090" height="912" fill="#ffffff"/><g transform="translate(0,0)"><rect x="0" y="0" width="1090" height="44" fill="#ffffff"/><circle cx="20.0" cy="22.0" r="6.5" fill="#1f6fb2" stroke="#111" stroke-width="1.4"/><text x="34.0" y="26.0" font-size="16.5" fill="#111" text-anchor="start" font-family="Helvetica,Arial,sans-serif">MeanFM</text><circle cx="117.0" cy="22.0" r="6.5" fill="#0f8b8d" stroke="#111" stroke-width="1.4"/><text x="131.0" y="26.0" font-size="16.5" fill="#111" text-anchor="start" font-family="Helvetica,Arial,sans-serif">CI-MeanFM</text><circle cx="245.5" cy="22.0" r="6.5" fill="#d95f02" stroke="#111" stroke-width="1.4"/><text x="259.5" y="26.0" font-size="16.5" fill="#111" text-anchor="start" font-family="Helvetica,Arial,sans-serif">FM</text><circle cx="300.5" cy="22.0" r="6.5" fill="#17202a" stroke="#111" stroke-width="1.4"/><text x="314.5" y="26.0" font-size="16.5" fill="#111" text-anchor="start" font-family="Helvetica,Arial,sans-serif">Diffusion</text><circle cx="449.0" cy="22.0" r="6.5" fill="#777" stroke="#111" stroke-width="1.4"/><text x="463.0" y="26.0" font-size="16.5" fill="#111" text-anchor="start" font-family="Helvetica,Arial,sans-serif">cumulative projection cost</text><rect x="749.5" y="15.5" width="13.0" height="13.0" fill="#777" stroke="#111" stroke-width="1.4"/><text x="770.0" y="26.0" font-size="16.5" fill="#111" text-anchor="start" font-family="Helvetica,Arial,sans-serif">temporal consistency</text></g><g transform="translate(0,54)"><rect x="0" y="0" width="540" height="424" fill="#ffffff"/><line x1="149.2" y1="48" x2="149.2" y2="352" stroke="#e6e6e6" stroke-width="1"/><text x="149.2" y="376.0" font-size="15.75" fill="#222" text-anchor="middle" font-family="Helvetica,Arial,sans-serif">0.02</text><line x1="237.5" y1="48" x2="237.5" y2="352" stroke="#e6e6e6" stroke-width="1"/><text x="237.5" y="376.0" font-size="15.75" fill="#222" text-anchor="middle" font-family="Helvetica,Arial,sans-serif">0.05</text><line x1="304.3" y1="48" x2="304.3" y2="352" stroke="#e6e6e6" stroke-width="1"/><text x="304.3" y="376.0" font-size="15.75" fill="#222" text-anchor="middle" font-family="Helvetica,Arial,sans-serif">0.1</text><line x1="371.1" y1="48" x2="371.1" y2="352" stroke="#e6e6e6" stroke-width="1"/><text x="371.1" y="376.0" font-size="15.75" fill="#222" text-anchor="middle" font-family="Helvetica,Arial,sans-serif">0.2</text><line x1="459.4" y1="48" x2="459.4" y2="352" stroke="#e6e6e6" stroke-width="1"/><text x="459.4" y="376.0" font-size="15.75" fill="#222" text-anchor="middle" font-family="Helvetica,Arial,sans-serif">0.5</text><line x1="86" y1="325.0" x2="522" y2="325.0" stroke="#e6e6e6" stroke-width="1"/><text x="79" y="330.3" font-size="15.75" fill="#222" text-anchor="end" font-family="Helvetica,Arial,sans-serif">60</text><line x1="86" y1="275.4" x2="522" y2="275.4" stroke="#e6e6e6" stroke-width="1"/><text x="79" y="280.7" font-size="15.75" fill="#222" text-anchor="end" font-family="Helvetica,Arial,sans-serif">70</text><line x1="86" y1="225.8" x2="522" y2="225.8" stroke="#e6e6e6" stroke-width="1"/><text x="79" y="231.1" font-size="15.75" fill="#222" text-anchor="end" font-family="Helvetica,Arial,sans-serif">80</text><line x1="86" y1="176.2" x2="522" y2="176.2" stroke="#e6e6e6" stroke-width="1"/><text x="79" y="181.5" font-size="15.75" fill="#222" text-anchor="end" font-family="Helvetica,Arial,sans-serif">90</text><line x1="86" y1="126.6" x2="522" y2="126.6" stroke="#e6e6e6" stroke-width="1"/><text x="79" y="131.9" font-size="15.75" fill="#222" text-anchor="end" font-family="Helvetica,Arial,sans-serif">100</text><line x1="86" y1="77.0" x2="522" y2="77.0" stroke="#e6e6e6" stroke-width="1"/><text x="79" y="82.2" font-size="15.75" fill="#222" text-anchor="end" font-family="Helvetica,Arial,sans-serif">110</text><rect x="86" y="48" width="436" height="304" fill="none" stroke="#111" stroke-width="1.2"/><text x="304.0" y="409.0" font-size="17.25" fill="#111" text-anchor="middle" font-family="Helvetica,Arial,sans-serif">time per control step [s] (log)</text><text x="24.0" y="200.0" font-size="17.25" fill="#111" text-anchor="middle" font-family="Helvetica,Arial,sans-serif" transform="rotate(-90 24.0 200.0)">control steps</text><text x="86" y="30.0" font-size="19.5" font-weight="bold" fill="#111" font-family="Helvetica,Arial,sans-serif">All three geometries</text><polyline points="135.2,290.2 139.7,290.2 139.7,328.8 140.7,328.8 140.7,332.2" fill="none" stroke="#222" stroke-width="1.6" stroke-dasharray="6,4"/><rect x="387.0" y="69.0" width="114.0" height="111.0" rx="6.0" fill="#ffffff" fill-opacity="0.94" stroke="#34495e" stroke-width="1.8"/><line x1="477.0" y1="78.0" x2="411.0" y2="144.0" stroke="#34495e" stroke-width="3.6" stroke-linecap="round"/><line x1="411.0" y1="144.0" x2="414.3" y2="130.9" stroke="#34495e" stroke-width="3.6" stroke-linecap="round"/><line x1="411.0" y1="144.0" x2="424.1" y2="140.7" stroke="#34495e" stroke-width="3.6" stroke-linecap="round"/><text x="444.0" y="166.5" font-size="16.5" fill="#34495e" text-anchor="middle" font-family="Helvetica,Arial,sans-serif" font-weight="bold">better</text><circle cx="135.2" cy="290.2" r="13" fill="none" stroke="#222" stroke-width="1.1"/><circle cx="139.7" cy="328.8" r="13" fill="none" stroke="#222" stroke-width="1.1"/><circle cx="140.7" cy="332.2" r="13" fill="none" stroke="#222" stroke-width="1.1"/><circle cx="431.2" cy="328.0" r="6.5" fill="#ffffff" stroke="#1f6fb2" stroke-width="1.6"/><text x="440.2" y="319.0" font-size="16.5" fill="#999" text-anchor="start" font-family="Helvetica,Arial,sans-serif">10</text><rect x="432.0" y="300.5" width="13.0" height="13.0" fill="#ffffff" stroke="#1f6fb2" stroke-width="1.6"/><text x="447.5" y="326.0" font-size="16.5" fill="#999" text-anchor="start" font-family="Helvetica,Arial,sans-serif">10</text><circle cx="140.6" cy="263.7" r="6.5" fill="#ffffff" stroke="#1f6fb2" stroke-width="1.6"/><text x="149.6" y="254.7" font-size="16.5" fill="#999" text-anchor="start" font-family="Helvetica,Arial,sans-serif">1</text><rect x="134.2" y="325.7" width="13.0" height="13.0" fill="#1f6fb2" stroke="#111" stroke-width="1.6"/><text x="149.7" y="351.2" font-size="16.5" fill="#111" text-anchor="start" font-family="Helvetica,Arial,sans-serif">1</text><circle cx="178.6" cy="140.5" r="6.5" fill="#ffffff" stroke="#1f6fb2" stroke-width="1.6"/><text x="187.6" y="131.5" font-size="16.5" fill="#999" text-anchor="start" font-family="Helvetica,Arial,sans-serif">2</text><rect x="174.2" y="321.4" width="13.0" height="13.0" fill="#1f6fb2" stroke="#111" stroke-width="1.6"/><text x="189.7" y="346.9" font-size="16.5" fill="#111" text-anchor="start" font-family="Helvetica,Arial,sans-serif">2</text><circle cx="375.7" cy="317.4" r="6.5" fill="#ffffff" stroke="#1f6fb2" stroke-width="1.6"/><text x="384.7" y="308.4" font-size="16.5" fill="#999" text-anchor="start" font-family="Helvetica,Arial,sans-serif">5</text><rect x="375.5" y="315.6" width="13.0" height="13.0" fill="#ffffff" stroke="#1f6fb2" stroke-width="1.6"/><text x="391.0" y="341.1" font-size="16.5" fill="#999" text-anchor="start" font-family="Helvetica,Arial,sans-serif">5</text><circle cx="139.1" cy="283.2" r="6.5" fill="#0f8b8d" stroke="#111" stroke-width="1.6"/><text x="148.1" y="274.2" font-size="16.5" fill="#111" text-anchor="start" font-family="Helvetica,Arial,sans-serif">1</text><rect x="133.2" y="322.3" width="13.0" height="13.0" fill="#0f8b8d" stroke="#111" stroke-width="1.6"/><text x="148.7" y="347.8" font-size="16.5" fill="#111" text-anchor="start" font-family="Helvetica,Arial,sans-serif">1</text><circle cx="176.7" cy="177.7" r="6.5" fill="#ffffff" stroke="#0f8b8d" stroke-width="1.6"/><text x="185.7" y="168.7" font-size="16.5" fill="#999" text-anchor="start" font-family="Helvetica,Arial,sans-serif">2</text><rect x="171.7" y="317.9" width="13.0" height="13.0" fill="#0f8b8d" stroke="#111" stroke-width="1.6"/><text x="187.2" y="343.4" font-size="16.5" fill="#111" text-anchor="start" font-family="Helvetica,Arial,sans-serif">2</text><circle cx="135.2" cy="290.2" r="6.5" fill="#d95f02" stroke="#111" stroke-width="1.6"/><text x="144.2" y="281.2" font-size="16.5" fill="#111" text-anchor="start" font-family="Helvetica,Arial,sans-serif">1</text><rect x="131.1" y="277.9" width="13.0" height="13.0" fill="#d95f02" stroke="#111" stroke-width="1.6"/><text x="146.6" y="303.4" font-size="16.5" fill="#111" text-anchor="start" font-family="Helvetica,Arial,sans-serif">1</text><circle cx="454.8" cy="309.0" r="6.5" fill="#d95f02" stroke="#111" stroke-width="1.6"/><text x="463.8" y="300.0" font-size="16.5" fill="#111" text-anchor="start" font-family="Helvetica,Arial,sans-serif">20</text><rect x="450.3" y="300.4" width="13.0" height="13.0" fill="#d95f02" stroke="#111" stroke-width="1.6"/><text x="465.8" y="325.9" font-size="16.5" fill="#111" text-anchor="start" font-family="Helvetica,Arial,sans-serif">20</text><circle cx="172.5" cy="290.3" r="6.5" fill="#d95f02" stroke="#111" stroke-width="1.6"/><text x="181.5" y="281.3" font-size="16.5" fill="#111" text-anchor="start" font-family="Helvetica,Arial,sans-serif">2</text><rect x="167.7" y="299.5" width="13.0" height="13.0" fill="#d95f02" stroke="#111" stroke-width="1.6"/><text x="183.2" y="325.0" font-size="16.5" fill="#111" text-anchor="start" font-family="Helvetica,Arial,sans-serif">2</text><circle cx="413.3" cy="273.8" r="6.5" fill="#17202a" stroke="#111" stroke-width="1.6"/><text x="422.3" y="264.8" font-size="16.5" fill="#111" text-anchor="start" font-family="Helvetica,Arial,sans-serif">10</text><rect x="410.4" y="275.4" width="13.0" height="13.0" fill="#17202a" stroke="#111" stroke-width="1.6"/><text x="425.9" y="300.9" font-size="16.5" fill="#111" text-anchor="start" font-family="Helvetica,Arial,sans-serif">10</text><circle cx="198.3" cy="265.2" r="6.5" fill="#ffffff" stroke="#17202a" stroke-width="1.6"/><text x="207.3" y="256.2" font-size="16.5" fill="#999" text-anchor="start" font-family="Helvetica,Arial,sans-serif">1</text><rect x="192.0" y="251.7" width="13.0" height="13.0" fill="#ffffff" stroke="#17202a" stroke-width="1.6"/><text x="207.5" y="277.2" font-size="16.5" fill="#999" text-anchor="start" font-family="Helvetica,Arial,sans-serif">1</text><circle cx="469.2" cy="274.8" r="6.5" fill="#17202a" stroke="#111" stroke-width="1.6"/><text x="478.2" y="265.8" font-size="16.5" fill="#111" text-anchor="start" font-family="Helvetica,Arial,sans-serif">20</text><rect x="464.4" y="238.5" width="13.0" height="13.0" fill="#17202a" stroke="#111" stroke-width="1.6"/><text x="479.9" y="264.0" font-size="16.5" fill="#111" text-anchor="start" font-family="Helvetica,Arial,sans-serif">20</text></g><g transform="translate(550,54)"><rect x="0" y="0" width="540" height="424" fill="#ffffff"/><line x1="147.7" y1="48" x2="147.7" y2="352" stroke="#e6e6e6" stroke-width="1"/><text x="147.7" y="376.0" font-size="15.75" fill="#222" text-anchor="middle" font-family="Helvetica,Arial,sans-serif">0.02</text><line x1="236.3" y1="48" x2="236.3" y2="352" stroke="#e6e6e6" stroke-width="1"/><text x="236.3" y="376.0" font-size="15.75" fill="#222" text-anchor="middle" font-family="Helvetica,Arial,sans-serif">0.05</text><line x1="303.3" y1="48" x2="303.3" y2="352" stroke="#e6e6e6" stroke-width="1"/><text x="303.3" y="376.0" font-size="15.75" fill="#222" text-anchor="middle" font-family="Helvetica,Arial,sans-serif">0.1</text><line x1="370.3" y1="48" x2="370.3" y2="352" stroke="#e6e6e6" stroke-width="1"/><text x="370.3" y="376.0" font-size="15.75" fill="#222" text-anchor="middle" font-family="Helvetica,Arial,sans-serif">0.2</text><line x1="458.8" y1="48" x2="458.8" y2="352" stroke="#e6e6e6" stroke-width="1"/><text x="458.8" y="376.0" font-size="15.75" fill="#222" text-anchor="middle" font-family="Helvetica,Arial,sans-serif">0.5</text><line x1="86" y1="324.5" x2="522" y2="324.5" stroke="#e6e6e6" stroke-width="1"/><text x="79" y="329.8" font-size="15.75" fill="#222" text-anchor="end" font-family="Helvetica,Arial,sans-serif">60</text><line x1="86" y1="273.6" x2="522" y2="273.6" stroke="#e6e6e6" stroke-width="1"/><text x="79" y="278.9" font-size="15.75" fill="#222" text-anchor="end" font-family="Helvetica,Arial,sans-serif">70</text><line x1="86" y1="222.7" x2="522" y2="222.7" stroke="#e6e6e6" stroke-width="1"/><text x="79" y="228.0" font-size="15.75" fill="#222" text-anchor="end" font-family="Helvetica,Arial,sans-serif">80</text><line x1="86" y1="171.8" x2="522" y2="171.8" stroke="#e6e6e6" stroke-width="1"/><text x="79" y="177.1" font-size="15.75" fill="#222" text-anchor="end" font-family="Helvetica,Arial,sans-serif">90</text><line x1="86" y1="120.9" x2="522" y2="120.9" stroke="#e6e6e6" stroke-width="1"/><text x="79" y="126.2" font-size="15.75" fill="#222" text-anchor="end" font-family="Helvetica,Arial,sans-serif">100</text><line x1="86" y1="70.0" x2="522" y2="70.0" stroke="#e6e6e6" stroke-width="1"/><text x="79" y="75.3" font-size="15.75" fill="#222" text-anchor="end" font-family="Helvetica,Arial,sans-serif">110</text><rect x="86" y="48" width="436" height="304" fill="none" stroke="#111" stroke-width="1.2"/><text x="304.0" y="409.0" font-size="17.25" fill="#111" text-anchor="middle" font-family="Helvetica,Arial,sans-serif">time per control step [s] (log)</text><text x="24.0" y="200.0" font-size="17.25" fill="#111" text-anchor="middle" font-family="Helvetica,Arial,sans-serif" transform="rotate(-90 24.0 200.0)"></text><text x="86" y="30.0" font-size="19.5" font-weight="bold" fill="#111" font-family="Helvetica,Arial,sans-serif">top-left-hard</text><polyline points="135.4,288.4 139.4,288.4 139.4,301.1 141.8,301.1 141.8,331.6" fill="none" stroke="#222" stroke-width="1.6" stroke-dasharray="6,4"/><rect x="387.0" y="69.0" width="114.0" height="111.0" rx="6.0" fill="#ffffff" fill-opacity="0.94" stroke="#34495e" stroke-width="1.8"/><line x1="477.0" y1="78.0" x2="411.0" y2="144.0" stroke="#34495e" stroke-width="3.6" stroke-linecap="round"/><line x1="411.0" y1="144.0" x2="414.3" y2="130.9" stroke="#34495e" stroke-width="3.6" stroke-linecap="round"/><line x1="411.0" y1="144.0" x2="424.1" y2="140.7" stroke="#34495e" stroke-width="3.6" stroke-linecap="round"/><text x="444.0" y="166.5" font-size="16.5" fill="#34495e" text-anchor="middle" font-family="Helvetica,Arial,sans-serif" font-weight="bold">better</text><circle cx="135.4" cy="288.4" r="13" fill="none" stroke="#222" stroke-width="1.1"/><circle cx="139.4" cy="301.1" r="13" fill="none" stroke="#222" stroke-width="1.1"/><circle cx="141.8" cy="331.6" r="13" fill="none" stroke="#222" stroke-width="1.1"/><circle cx="435.7" cy="331.1" r="6.5" fill="#1f6fb2" stroke="#111" stroke-width="1.6"/><text x="444.7" y="322.1" font-size="16.5" fill="#111" text-anchor="start" font-family="Helvetica,Arial,sans-serif">10</text><rect x="429.9" y="305.8" width="13.0" height="13.0" fill="#1f6fb2" stroke="#111" stroke-width="1.6"/><text x="445.4" y="331.3" font-size="16.5" fill="#111" text-anchor="start" font-family="Helvetica,Arial,sans-serif">10</text><circle cx="137.9" cy="274.6" r="6.5" fill="#1f6fb2" stroke="#111" stroke-width="1.6"/><text x="146.9" y="265.6" font-size="16.5" fill="#111" text-anchor="start" font-family="Helvetica,Arial,sans-serif">1</text><rect x="135.3" y="325.1" width="13.0" height="13.0" fill="#1f6fb2" stroke="#111" stroke-width="1.6"/><text x="150.8" y="350.6" font-size="16.5" fill="#111" text-anchor="start" font-family="Helvetica,Arial,sans-serif">1</text><circle cx="177.2" cy="141.3" r="6.5" fill="#1f6fb2" stroke="#111" stroke-width="1.6"/><text x="186.2" y="132.3" font-size="16.5" fill="#111" text-anchor="start" font-family="Helvetica,Arial,sans-serif">2</text><rect x="172.4" y="323.6" width="13.0" height="13.0" fill="#1f6fb2" stroke="#111" stroke-width="1.6"/><text x="187.9" y="349.1" font-size="16.5" fill="#111" text-anchor="start" font-family="Helvetica,Arial,sans-serif">2</text><circle cx="381.4" cy="319.9" r="6.5" fill="#1f6fb2" stroke="#111" stroke-width="1.6"/><text x="390.4" y="310.9" font-size="16.5" fill="#111" text-anchor="start" font-family="Helvetica,Arial,sans-serif">5</text><rect x="377.9" y="320.0" width="13.0" height="13.0" fill="#1f6fb2" stroke="#111" stroke-width="1.6"/><text x="393.4" y="345.5" font-size="16.5" fill="#111" text-anchor="start" font-family="Helvetica,Arial,sans-serif">5</text><circle cx="139.4" cy="301.1" r="6.5" fill="#0f8b8d" stroke="#111" stroke-width="1.6"/><text x="148.4" y="292.1" font-size="16.5" fill="#111" text-anchor="start" font-family="Helvetica,Arial,sans-serif">1</text><rect x="135.5" y="322.1" width="13.0" height="13.0" fill="#0f8b8d" stroke="#111" stroke-width="1.6"/><text x="151.0" y="347.6" font-size="16.5" fill="#111" text-anchor="start" font-family="Helvetica,Arial,sans-serif">1</text><circle cx="176.2" cy="188.6" r="6.5" fill="#0f8b8d" stroke="#111" stroke-width="1.6"/><text x="185.2" y="179.6" font-size="16.5" fill="#111" text-anchor="start" font-family="Helvetica,Arial,sans-serif">2</text><rect x="173.2" y="323.6" width="13.0" height="13.0" fill="#0f8b8d" stroke="#111" stroke-width="1.6"/><text x="188.7" y="349.1" font-size="16.5" fill="#111" text-anchor="start" font-family="Helvetica,Arial,sans-serif">2</text><circle cx="135.4" cy="288.4" r="6.5" fill="#d95f02" stroke="#111" stroke-width="1.6"/><text x="144.4" y="279.4" font-size="16.5" fill="#111" text-anchor="start" font-family="Helvetica,Arial,sans-serif">1</text><rect x="130.4" y="276.3" width="13.0" height="13.0" fill="#d95f02" stroke="#111" stroke-width="1.6"/><text x="145.9" y="301.8" font-size="16.5" fill="#111" text-anchor="start" font-family="Helvetica,Arial,sans-serif">1</text><circle cx="438.1" cy="294.5" r="6.5" fill="#d95f02" stroke="#111" stroke-width="1.6"/><text x="447.1" y="285.5" font-size="16.5" fill="#111" text-anchor="start" font-family="Helvetica,Arial,sans-serif">20</text><rect x="444.6" y="292.1" width="13.0" height="13.0" fill="#d95f02" stroke="#111" stroke-width="1.6"/><text x="460.1" y="317.6" font-size="16.5" fill="#111" text-anchor="start" font-family="Helvetica,Arial,sans-serif">20</text><circle cx="172.0" cy="299.6" r="6.5" fill="#d95f02" stroke="#111" stroke-width="1.6"/><text x="181.0" y="290.6" font-size="16.5" fill="#111" text-anchor="start" font-family="Helvetica,Arial,sans-serif">2</text><rect x="168.8" y="304.3" width="13.0" height="13.0" fill="#d95f02" stroke="#111" stroke-width="1.6"/><text x="184.3" y="329.8" font-size="16.5" fill="#111" text-anchor="start" font-family="Helvetica,Arial,sans-serif">2</text><circle cx="414.7" cy="276.7" r="6.5" fill="#17202a" stroke="#111" stroke-width="1.6"/><text x="423.7" y="267.7" font-size="16.5" fill="#111" text-anchor="start" font-family="Helvetica,Arial,sans-serif">10</text><rect x="421.9" y="270.7" width="13.0" height="13.0" fill="#17202a" stroke="#111" stroke-width="1.6"/><text x="437.4" y="296.2" font-size="16.5" fill="#111" text-anchor="start" font-family="Helvetica,Arial,sans-serif">10</text><circle cx="214.5" cy="221.7" r="6.5" fill="#ffffff" stroke="#17202a" stroke-width="1.6"/><text x="223.5" y="212.7" font-size="16.5" fill="#999" text-anchor="start" font-family="Helvetica,Arial,sans-serif">1</text><rect x="189.7" y="256.4" width="13.0" height="13.0" fill="#ffffff" stroke="#17202a" stroke-width="1.6"/><text x="205.2" y="281.9" font-size="16.5" fill="#999" text-anchor="start" font-family="Helvetica,Arial,sans-serif">1</text><circle cx="470.7" cy="281.8" r="6.5" fill="#17202a" stroke="#111" stroke-width="1.6"/><text x="479.7" y="272.8" font-size="16.5" fill="#111" text-anchor="start" font-family="Helvetica,Arial,sans-serif">20</text><rect x="462.9" y="226.9" width="13.0" height="13.0" fill="#17202a" stroke="#111" stroke-width="1.6"/><text x="478.4" y="252.4" font-size="16.5" fill="#111" text-anchor="start" font-family="Helvetica,Arial,sans-serif">20</text></g><g transform="translate(0,488)"><rect x="0" y="0" width="540" height="424" fill="#ffffff"/><line x1="151.7" y1="48" x2="151.7" y2="352" stroke="#e6e6e6" stroke-width="1"/><text x="151.7" y="376.0" font-size="15.75" fill="#222" text-anchor="middle" font-family="Helvetica,Arial,sans-serif">0.02</text><line x1="238.8" y1="48" x2="238.8" y2="352" stroke="#e6e6e6" stroke-width="1"/><text x="238.8" y="376.0" font-size="15.75" fill="#222" text-anchor="middle" font-family="Helvetica,Arial,sans-serif">0.05</text><line x1="304.7" y1="48" x2="304.7" y2="352" stroke="#e6e6e6" stroke-width="1"/><text x="304.7" y="376.0" font-size="15.75" fill="#222" text-anchor="middle" font-family="Helvetica,Arial,sans-serif">0.1</text><line x1="370.6" y1="48" x2="370.6" y2="352" stroke="#e6e6e6" stroke-width="1"/><text x="370.6" y="376.0" font-size="15.75" fill="#222" text-anchor="middle" font-family="Helvetica,Arial,sans-serif">0.2</text><line x1="457.7" y1="48" x2="457.7" y2="352" stroke="#e6e6e6" stroke-width="1"/><text x="457.7" y="376.0" font-size="15.75" fill="#222" text-anchor="middle" font-family="Helvetica,Arial,sans-serif">0.5</text><line x1="86" y1="331.6" x2="522" y2="331.6" stroke="#e6e6e6" stroke-width="1"/><text x="79" y="336.9" font-size="15.75" fill="#222" text-anchor="end" font-family="Helvetica,Arial,sans-serif">60</text><line x1="86" y1="279.4" x2="522" y2="279.4" stroke="#e6e6e6" stroke-width="1"/><text x="79" y="284.7" font-size="15.75" fill="#222" text-anchor="end" font-family="Helvetica,Arial,sans-serif">70</text><line x1="86" y1="227.2" x2="522" y2="227.2" stroke="#e6e6e6" stroke-width="1"/><text x="79" y="232.4" font-size="15.75" fill="#222" text-anchor="end" font-family="Helvetica,Arial,sans-serif">80</text><line x1="86" y1="175.0" x2="522" y2="175.0" stroke="#e6e6e6" stroke-width="1"/><text x="79" y="180.2" font-size="15.75" fill="#222" text-anchor="end" font-family="Helvetica,Arial,sans-serif">90</text><line x1="86" y1="122.7" x2="522" y2="122.7" stroke="#e6e6e6" stroke-width="1"/><text x="79" y="128.0" font-size="15.75" fill="#222" text-anchor="end" font-family="Helvetica,Arial,sans-serif">100</text><line x1="86" y1="70.5" x2="522" y2="70.5" stroke="#e6e6e6" stroke-width="1"/><text x="79" y="75.8" font-size="15.75" fill="#222" text-anchor="end" font-family="Helvetica,Arial,sans-serif">110</text><rect x="86" y="48" width="436" height="304" fill="none" stroke="#111" stroke-width="1.2"/><text x="304.0" y="409.0" font-size="17.25" fill="#111" text-anchor="middle" font-family="Helvetica,Arial,sans-serif">time per control step [s] (log)</text><text x="24.0" y="200.0" font-size="17.25" fill="#111" text-anchor="middle" font-family="Helvetica,Arial,sans-serif" transform="rotate(-90 24.0 200.0)">control steps</text><text x="86" y="30.0" font-size="19.5" font-weight="bold" fill="#111" font-family="Helvetica,Arial,sans-serif">top-right-hard</text><polyline points="134.6,287.2 139.2,287.2 139.2,323.8" fill="none" stroke="#222" stroke-width="1.6" stroke-dasharray="6,4"/><rect x="387.0" y="69.0" width="114.0" height="111.0" rx="6.0" fill="#ffffff" fill-opacity="0.94" stroke="#34495e" stroke-width="1.8"/><line x1="477.0" y1="78.0" x2="411.0" y2="144.0" stroke="#34495e" stroke-width="3.6" stroke-linecap="round"/><line x1="411.0" y1="144.0" x2="414.3" y2="130.9" stroke="#34495e" stroke-width="3.6" stroke-linecap="round"/><line x1="411.0" y1="144.0" x2="424.1" y2="140.7" stroke="#34495e" stroke-width="3.6" stroke-linecap="round"/><text x="444.0" y="166.5" font-size="16.5" fill="#34495e" text-anchor="middle" font-family="Helvetica,Arial,sans-serif" font-weight="bold">better</text><circle cx="134.6" cy="287.2" r="13" fill="none" stroke="#222" stroke-width="1.1"/><circle cx="139.2" cy="323.8" r="13" fill="none" stroke="#222" stroke-width="1.1"/><circle cx="426.5" cy="325.9" r="6.5" fill="#ffffff" stroke="#1f6fb2" stroke-width="1.6"/><text x="435.5" y="316.9" font-size="16.5" fill="#999" text-anchor="start" font-family="Helvetica,Arial,sans-serif">10</text><rect x="433.3" y="280.2" width="13.0" height="13.0" fill="#ffffff" stroke="#1f6fb2" stroke-width="1.6"/><text x="448.8" y="305.7" font-size="16.5" fill="#999" text-anchor="start" font-family="Helvetica,Arial,sans-serif">10</text><circle cx="135.3" cy="257.5" r="6.5" fill="#1f6fb2" stroke="#111" stroke-width="1.6"/><text x="144.3" y="248.5" font-size="16.5" fill="#111" text-anchor="start" font-family="Helvetica,Arial,sans-serif">1</text><rect x="130.9" y="324.6" width="13.0" height="13.0" fill="#ffffff" stroke="#1f6fb2" stroke-width="1.6"/><text x="146.4" y="350.1" font-size="16.5" fill="#999" text-anchor="start" font-family="Helvetica,Arial,sans-serif">1</text><circle cx="180.9" cy="142.1" r="6.5" fill="#ffffff" stroke="#1f6fb2" stroke-width="1.6"/><text x="189.9" y="133.1" font-size="16.5" fill="#999" text-anchor="start" font-family="Helvetica,Arial,sans-serif">2</text><rect x="177.9" y="313.6" width="13.0" height="13.0" fill="#ffffff" stroke="#1f6fb2" stroke-width="1.6"/><text x="193.4" y="339.1" font-size="16.5" fill="#999" text-anchor="start" font-family="Helvetica,Arial,sans-serif">2</text><circle cx="372.3" cy="323.8" r="6.5" fill="#ffffff" stroke="#1f6fb2" stroke-width="1.6"/><text x="381.3" y="314.8" font-size="16.5" fill="#999" text-anchor="start" font-family="Helvetica,Arial,sans-serif">5</text><rect x="375.1" y="295.4" width="13.0" height="13.0" fill="#ffffff" stroke="#1f6fb2" stroke-width="1.6"/><text x="390.6" y="320.9" font-size="16.5" fill="#999" text-anchor="start" font-family="Helvetica,Arial,sans-serif">5</text><circle cx="136.0" cy="273.7" r="6.5" fill="#ffffff" stroke="#0f8b8d" stroke-width="1.6"/><text x="145.0" y="264.7" font-size="16.5" fill="#999" text-anchor="start" font-family="Helvetica,Arial,sans-serif">1</text><rect x="132.7" y="317.3" width="13.0" height="13.0" fill="#0f8b8d" stroke="#111" stroke-width="1.6"/><text x="148.2" y="342.8" font-size="16.5" fill="#111" text-anchor="start" font-family="Helvetica,Arial,sans-serif">1</text><circle cx="177.6" cy="174.4" r="6.5" fill="#ffffff" stroke="#0f8b8d" stroke-width="1.6"/><text x="186.6" y="165.4" font-size="16.5" fill="#999" text-anchor="start" font-family="Helvetica,Arial,sans-serif">2</text><rect x="171.6" y="303.2" width="13.0" height="13.0" fill="#0f8b8d" stroke="#111" stroke-width="1.6"/><text x="187.1" y="328.7" font-size="16.5" fill="#111" text-anchor="start" font-family="Helvetica,Arial,sans-serif">2</text><circle cx="134.6" cy="287.2" r="6.5" fill="#d95f02" stroke="#111" stroke-width="1.6"/><text x="143.6" y="278.2" font-size="16.5" fill="#111" text-anchor="start" font-family="Helvetica,Arial,sans-serif">1</text><rect x="129.2" y="271.3" width="13.0" height="13.0" fill="#d95f02" stroke="#111" stroke-width="1.6"/><text x="144.7" y="296.8" font-size="16.5" fill="#111" text-anchor="start" font-family="Helvetica,Arial,sans-serif">1</text><circle cx="436.5" cy="295.1" r="6.5" fill="#d95f02" stroke="#111" stroke-width="1.6"/><text x="445.5" y="286.1" font-size="16.5" fill="#111" text-anchor="start" font-family="Helvetica,Arial,sans-serif">20</text><rect x="427.8" y="291.2" width="13.0" height="13.0" fill="#d95f02" stroke="#111" stroke-width="1.6"/><text x="443.3" y="316.7" font-size="16.5" fill="#111" text-anchor="start" font-family="Helvetica,Arial,sans-serif">20</text><circle cx="173.7" cy="278.9" r="6.5" fill="#d95f02" stroke="#111" stroke-width="1.6"/><text x="182.7" y="269.9" font-size="16.5" fill="#111" text-anchor="start" font-family="Helvetica,Arial,sans-serif">2</text><rect x="167.0" y="291.7" width="13.0" height="13.0" fill="#d95f02" stroke="#111" stroke-width="1.6"/><text x="182.5" y="317.2" font-size="16.5" fill="#111" text-anchor="start" font-family="Helvetica,Arial,sans-serif">2</text><circle cx="405.1" cy="263.2" r="6.5" fill="#17202a" stroke="#111" stroke-width="1.6"/><text x="414.1" y="254.2" font-size="16.5" fill="#111" text-anchor="start" font-family="Helvetica,Arial,sans-serif">10</text><rect x="412.2" y="284.9" width="13.0" height="13.0" fill="#17202a" stroke="#111" stroke-width="1.6"/><text x="427.7" y="310.4" font-size="16.5" fill="#111" text-anchor="start" font-family="Helvetica,Arial,sans-serif">10</text><circle cx="198.5" cy="301.9" r="6.5" fill="#ffffff" stroke="#17202a" stroke-width="1.6"/><text x="207.5" y="292.9" font-size="16.5" fill="#999" text-anchor="start" font-family="Helvetica,Arial,sans-serif">1</text><rect x="219.5" y="221.7" width="13.0" height="13.0" fill="#ffffff" stroke="#17202a" stroke-width="1.6"/><text x="235.0" y="247.2" font-size="16.5" fill="#999" text-anchor="start" font-family="Helvetica,Arial,sans-serif">1</text><circle cx="458.6" cy="241.8" r="6.5" fill="#17202a" stroke="#111" stroke-width="1.6"/><text x="467.6" y="232.8" font-size="16.5" fill="#111" text-anchor="start" font-family="Helvetica,Arial,sans-serif">20</text><rect x="465.0" y="167.9" width="13.0" height="13.0" fill="#17202a" stroke="#111" stroke-width="1.6"/><text x="480.5" y="193.4" font-size="16.5" fill="#111" text-anchor="start" font-family="Helvetica,Arial,sans-serif">20</text></g><g transform="translate(550,488)"><rect x="0" y="0" width="540" height="424" fill="#ffffff"/><line x1="146.3" y1="48" x2="146.3" y2="352" stroke="#e6e6e6" stroke-width="1"/><text x="146.3" y="376.0" font-size="15.75" fill="#222" text-anchor="middle" font-family="Helvetica,Arial,sans-serif">0.02</text><line x1="232.9" y1="48" x2="232.9" y2="352" stroke="#e6e6e6" stroke-width="1"/><text x="232.9" y="376.0" font-size="15.75" fill="#222" text-anchor="middle" font-family="Helvetica,Arial,sans-serif">0.05</text><line x1="298.4" y1="48" x2="298.4" y2="352" stroke="#e6e6e6" stroke-width="1"/><text x="298.4" y="376.0" font-size="15.75" fill="#222" text-anchor="middle" font-family="Helvetica,Arial,sans-serif">0.1</text><line x1="363.9" y1="48" x2="363.9" y2="352" stroke="#e6e6e6" stroke-width="1"/><text x="363.9" y="376.0" font-size="15.75" fill="#222" text-anchor="middle" font-family="Helvetica,Arial,sans-serif">0.2</text><line x1="450.5" y1="48" x2="450.5" y2="352" stroke="#e6e6e6" stroke-width="1"/><text x="450.5" y="376.0" font-size="15.75" fill="#222" text-anchor="middle" font-family="Helvetica,Arial,sans-serif">0.5</text><line x1="516.0" y1="48" x2="516.0" y2="352" stroke="#e6e6e6" stroke-width="1"/><text x="516.0" y="376.0" font-size="15.75" fill="#222" text-anchor="middle" font-family="Helvetica,Arial,sans-serif">1</text><line x1="86" y1="317.7" x2="522" y2="317.7" stroke="#e6e6e6" stroke-width="1"/><text x="79" y="323.0" font-size="15.75" fill="#222" text-anchor="end" font-family="Helvetica,Arial,sans-serif">60</text><line x1="86" y1="272.0" x2="522" y2="272.0" stroke="#e6e6e6" stroke-width="1"/><text x="79" y="277.3" font-size="15.75" fill="#222" text-anchor="end" font-family="Helvetica,Arial,sans-serif">70</text><line x1="86" y1="226.3" x2="522" y2="226.3" stroke="#e6e6e6" stroke-width="1"/><text x="79" y="231.6" font-size="15.75" fill="#222" text-anchor="end" font-family="Helvetica,Arial,sans-serif">80</text><line x1="86" y1="180.6" x2="522" y2="180.6" stroke="#e6e6e6" stroke-width="1"/><text x="79" y="185.9" font-size="15.75" fill="#222" text-anchor="end" font-family="Helvetica,Arial,sans-serif">90</text><line x1="86" y1="134.9" x2="522" y2="134.9" stroke="#e6e6e6" stroke-width="1"/><text x="79" y="140.2" font-size="15.75" fill="#222" text-anchor="end" font-family="Helvetica,Arial,sans-serif">100</text><line x1="86" y1="89.3" x2="522" y2="89.3" stroke="#e6e6e6" stroke-width="1"/><text x="79" y="94.5" font-size="15.75" fill="#222" text-anchor="end" font-family="Helvetica,Arial,sans-serif">110</text><rect x="86" y="48" width="436" height="304" fill="none" stroke="#111" stroke-width="1.2"/><text x="304.0" y="409.0" font-size="17.25" fill="#111" text-anchor="middle" font-family="Helvetica,Arial,sans-serif">time per control step [s] (log)</text><text x="24.0" y="200.0" font-size="17.25" fill="#111" text-anchor="middle" font-family="Helvetica,Arial,sans-serif" transform="rotate(-90 24.0 200.0)"></text><text x="86" y="30.0" font-size="19.5" font-weight="bold" fill="#111" font-family="Helvetica,Arial,sans-serif">both-hard</text><polyline points="134.3,292.6 136.2,292.6 136.2,331.4 370.9,331.4 370.9,333.7" fill="none" stroke="#222" stroke-width="1.6" stroke-dasharray="6,4"/><rect x="387.0" y="69.0" width="114.0" height="111.0" rx="6.0" fill="#ffffff" fill-opacity="0.94" stroke="#34495e" stroke-width="1.8"/><line x1="477.0" y1="78.0" x2="411.0" y2="144.0" stroke="#34495e" stroke-width="3.6" stroke-linecap="round"/><line x1="411.0" y1="144.0" x2="414.3" y2="130.9" stroke="#34495e" stroke-width="3.6" stroke-linecap="round"/><line x1="411.0" y1="144.0" x2="424.1" y2="140.7" stroke="#34495e" stroke-width="3.6" stroke-linecap="round"/><text x="444.0" y="166.5" font-size="16.5" fill="#34495e" text-anchor="middle" font-family="Helvetica,Arial,sans-serif" font-weight="bold">better</text><circle cx="134.3" cy="292.6" r="13" fill="none" stroke="#222" stroke-width="1.1"/><circle cx="136.2" cy="331.4" r="13" fill="none" stroke="#222" stroke-width="1.1"/><circle cx="370.9" cy="333.7" r="13" fill="none" stroke="#222" stroke-width="1.1"/><circle cx="421.1" cy="325.0" r="6.5" fill="#ffffff" stroke="#1f6fb2" stroke-width="1.6"/><text x="430.1" y="316.0" font-size="16.5" fill="#999" text-anchor="start" font-family="Helvetica,Arial,sans-serif">10</text><rect x="421.9" y="311.7" width="13.0" height="13.0" fill="#ffffff" stroke="#1f6fb2" stroke-width="1.6"/><text x="437.4" y="337.2" font-size="16.5" fill="#999" text-anchor="start" font-family="Helvetica,Arial,sans-serif">10</text><circle cx="146.1" cy="257.9" r="6.5" fill="#ffffff" stroke="#1f6fb2" stroke-width="1.6"/><text x="155.1" y="248.9" font-size="16.5" fill="#999" text-anchor="start" font-family="Helvetica,Arial,sans-serif">1</text><rect x="134.4" y="324.9" width="13.0" height="13.0" fill="#1f6fb2" stroke="#111" stroke-width="1.6"/><text x="149.9" y="350.4" font-size="16.5" fill="#111" text-anchor="start" font-family="Helvetica,Arial,sans-serif">1</text><circle cx="175.0" cy="138.1" r="6.5" fill="#ffffff" stroke="#1f6fb2" stroke-width="1.6"/><text x="184.0" y="129.1" font-size="16.5" fill="#999" text-anchor="start" font-family="Helvetica,Arial,sans-serif">2</text><rect x="169.5" y="324.0" width="13.0" height="13.0" fill="#1f6fb2" stroke="#111" stroke-width="1.6"/><text x="185.0" y="349.5" font-size="16.5" fill="#111" text-anchor="start" font-family="Helvetica,Arial,sans-serif">2</text><circle cx="364.5" cy="307.7" r="6.5" fill="#ffffff" stroke="#1f6fb2" stroke-width="1.6"/><text x="373.5" y="298.7" font-size="16.5" fill="#999" text-anchor="start" font-family="Helvetica,Arial,sans-serif">5</text><rect x="364.4" y="327.2" width="13.0" height="13.0" fill="#1f6fb2" stroke="#111" stroke-width="1.6"/><text x="379.9" y="352.7" font-size="16.5" fill="#111" text-anchor="start" font-family="Helvetica,Arial,sans-serif">5</text><circle cx="140.1" cy="273.9" r="6.5" fill="#0f8b8d" stroke="#111" stroke-width="1.6"/><text x="149.1" y="264.9" font-size="16.5" fill="#111" text-anchor="start" font-family="Helvetica,Arial,sans-serif">1</text><rect x="129.7" y="324.9" width="13.0" height="13.0" fill="#0f8b8d" stroke="#111" stroke-width="1.6"/><text x="145.2" y="350.4" font-size="16.5" fill="#111" text-anchor="start" font-family="Helvetica,Arial,sans-serif">1</text><circle cx="173.6" cy="170.1" r="6.5" fill="#ffffff" stroke="#0f8b8d" stroke-width="1.6"/><text x="182.6" y="161.1" font-size="16.5" fill="#999" text-anchor="start" font-family="Helvetica,Arial,sans-serif">2</text><rect x="167.5" y="323.6" width="13.0" height="13.0" fill="#0f8b8d" stroke="#111" stroke-width="1.6"/><text x="183.0" y="349.1" font-size="16.5" fill="#111" text-anchor="start" font-family="Helvetica,Arial,sans-serif">2</text><circle cx="134.3" cy="292.6" r="6.5" fill="#d95f02" stroke="#111" stroke-width="1.6"/><text x="143.3" y="283.6" font-size="16.5" fill="#111" text-anchor="start" font-family="Helvetica,Arial,sans-serif">1</text><rect x="132.1" y="283.4" width="13.0" height="13.0" fill="#d95f02" stroke="#111" stroke-width="1.6"/><text x="147.6" y="308.9" font-size="16.5" fill="#111" text-anchor="start" font-family="Helvetica,Arial,sans-serif">1</text><circle cx="471.9" cy="332.4" r="6.5" fill="#d95f02" stroke="#111" stroke-width="1.6"/><text x="480.9" y="323.4" font-size="16.5" fill="#111" text-anchor="start" font-family="Helvetica,Arial,sans-serif">20</text><rect x="462.3" y="314.0" width="13.0" height="13.0" fill="#d95f02" stroke="#111" stroke-width="1.6"/><text x="477.8" y="339.5" font-size="16.5" fill="#111" text-anchor="start" font-family="Helvetica,Arial,sans-serif">20</text><circle cx="169.4" cy="290.3" r="6.5" fill="#d95f02" stroke="#111" stroke-width="1.6"/><text x="178.4" y="281.3" font-size="16.5" fill="#111" text-anchor="start" font-family="Helvetica,Arial,sans-serif">2</text><rect x="164.5" y="300.3" width="13.0" height="13.0" fill="#d95f02" stroke="#111" stroke-width="1.6"/><text x="180.0" y="325.8" font-size="16.5" fill="#111" text-anchor="start" font-family="Helvetica,Arial,sans-serif">2</text><circle cx="409.7" cy="278.9" r="6.5" fill="#17202a" stroke="#111" stroke-width="1.6"/><text x="418.7" y="269.9" font-size="16.5" fill="#111" text-anchor="start" font-family="Helvetica,Arial,sans-serif">10</text><rect x="385.2" y="269.6" width="13.0" height="13.0" fill="#17202a" stroke="#111" stroke-width="1.6"/><text x="400.7" y="295.1" font-size="16.5" fill="#111" text-anchor="start" font-family="Helvetica,Arial,sans-serif">10</text><circle cx="175.3" cy="270.7" r="6.5" fill="#ffffff" stroke="#17202a" stroke-width="1.6"/><text x="184.3" y="261.7" font-size="16.5" fill="#999" text-anchor="start" font-family="Helvetica,Arial,sans-serif">1</text><rect x="154.2" y="272.4" width="13.0" height="13.0" fill="#17202a" stroke="#111" stroke-width="1.6"/><text x="169.7" y="297.9" font-size="16.5" fill="#111" text-anchor="start" font-family="Helvetica,Arial,sans-serif">1</text><circle cx="466.2" cy="295.8" r="6.5" fill="#17202a" stroke="#111" stroke-width="1.6"/><text x="475.2" y="286.8" font-size="16.5" fill="#111" text-anchor="start" font-family="Helvetica,Arial,sans-serif">20</text><rect x="453.5" y="309.4" width="13.0" height="13.0" fill="#17202a" stroke="#111" stroke-width="1.6"/><text x="469.0" y="334.9" font-size="16.5" fill="#111" text-anchor="start" font-family="Helvetica,Arial,sans-serif">20</text></g></svg>