<svg xmlns="http://www.w3.org/2000/svg" width="760" height="470" viewBox="0 0 760 470"><rect x="0" y="0" width="760" height="470" fill="#ffffff"/><line x1="107.7" y1="44" x2="107.7" y2="416" stroke="#e6e6e6" stroke-width="1"/><text x="107.7" y="432" font-size="10.5" fill="#222" text-anchor="middle" font-family="Helvetica,Arial,sans-serif">1</text><line x1="206.0" y1="44" x2="206.0" y2="416" stroke="#e6e6e6" stroke-width="1"/><text x="206.0" y="432" font-size="10.5" fill="#222" text-anchor="middle" font-family="Helvetica,Arial,sans-serif">2</text><line x1="336.0" y1="44" x2="336.0" y2="416" stroke="#e6e6e6" stroke-width="1"/><text x="336.0" y="432" font-size="10.5" fill="#222" text-anchor="middle" font-family="Helvetica,Arial,sans-serif">5</text><line x1="434.4" y1="44" x2="434.4" y2="416" stroke="#e6e6e6" stroke-width="1"/><text x="434.4" y="432" font-size="10.5" fill="#222" text-anchor="middle" font-family="Helvetica,Arial,sans-serif">10</text><line x1="532.8" y1="44" x2="532.8" y2="416" stroke="#e6e6e6" stroke-width="1"/><text x="532.8" y="432" font-size="10.5" fill="#222" text-anchor="middle" font-family="Helvetica,Arial,sans-serif">20</text><line x1="76" y1="378.0" x2="570" y2="378.0" stroke="#e6e6e6" stroke-width="1"/><text x="69" y="381.5" font-size="10.5" fill="#222" text-anchor="end" font-family="Helvetica,Arial,sans-serif">0.60</text><line x1="76" y1="302.1" x2="570" y2="302.1" stroke="#e6e6e6" stroke-width="1"/><text x="69" y="305.6" font-size="10.5" fill="#222" text-anchor="end" font-family="Helvetica,Arial,sans-serif">0.70</text><line x1="76" y1="226.2" x2="570" y2="226.2" stroke="#e6e6e6" stroke-width="1"/><text x="69" y="229.7" font-size="10.5" fill="#222" text-anchor="end" font-family="Helvetica,Arial,sans-serif">0.80</text><line x1="76" y1="150.3" x2="570" y2="150.3" stroke="#e6e6e6" stroke-width="1"/><text x="69" y="153.8" font-size="10.5" fill="#222" text-anchor="end" font-family="Helvetica,Arial,sans-serif">0.90</text><line x1="76" y1="74.4" x2="570" y2="74.4" stroke="#e6e6e6" stroke-width="1"/><text x="69" y="77.9" font-size="10.5" fill="#222" text-anchor="end" font-family="Helvetica,Arial,sans-serif">1.00</text><rect x="76" y="44" width="494" height="372" fill="none" stroke="#111" stroke-width="1.2"/><text x="323.0" y="454" font-size="11.5" fill="#111" text-anchor="middle" font-family="Helvetica,Arial,sans-serif">step budget K  [ network evaluations per plan ]   (log)</text><text x="16" y="230.0" font-size="11.5" fill="#111" text-anchor="middle" font-family="Helvetica,Arial,sans-serif" transform="rotate(-90 16 230.0)">success and constraint satisfaction</text><text x="76" y="20" font-size="13" font-weight="bold" fill="#111" font-family="Helvetica,Arial,sans-serif">Quality against step budget, state-based manipulation</text><text x="76" y="35" font-size="10.5" fill="#555" font-family="Helvetica,Arial,sans-serif">5 seeds (6-10) x 20 trials = 100 episodes per cell; geometry-mean over all three geometries, temporal-consistency rule, tightened. U-Net 4.0M throughout.</text><polyline points="107.7,327.4 434.4,74.4 532.8,74.4" fill="none" stroke="#c0392b" stroke-width="1.6" stroke-dasharray="5,4"/><circle cx="107.7" cy="327.4" r="5.0" fill="#ffffff" stroke="#c0392b" stroke-width="1.4"/><circle cx="434.4" cy="74.4" r="5.0" fill="#ffffff" stroke="#c0392b" stroke-width="1.4"/><circle cx="532.8" cy="74.4" r="5.0" fill="#ffffff" stroke="#c0392b" stroke-width="1.4"/><polyline points="107.7,79.4 206.0,79.4 336.0,89.6 434.4,94.6 532.8,108.5" fill="none" stroke="#1e8449" stroke-width="1.9"/><rect x="102.7" y="74.4" width="10.0" height="10.0" fill="#1e8449" stroke="#111" stroke-width="1.4"/><rect x="201.0" y="74.4" width="10.0" height="10.0" fill="#1e8449" stroke="#111" stroke-width="1.4"/><rect x="331.0" y="84.6" width="10.0" height="10.0" fill="#1e8449" stroke="#111" stroke-width="1.4"/><rect x="429.4" y="89.6" width="10.0" height="10.0" fill="#1e8449" stroke="#111" stroke-width="1.4"/><rect x="527.8" y="103.5" width="10.0" height="10.0" fill="#ffffff" stroke="#1e8449" stroke-width="1.4"/><polyline points="107.7,82.0 206.0,87.0 336.0,74.4 532.8,84.5" fill="none" stroke="#2471a3" stroke-width="1.9"/><rect x="102.7" y="77.0" width="10.0" height="10.0" fill="#2471a3" stroke="#111" stroke-width="1.4"/><rect x="201.0" y="82.0" width="10.0" height="10.0" fill="#2471a3" stroke="#111" stroke-width="1.4"/><rect x="331.0" y="69.4" width="10.0" height="10.0" fill="#2471a3" stroke="#111" stroke-width="1.4"/><rect x="527.8" y="79.5" width="10.0" height="10.0" fill="#2471a3" stroke="#111" stroke-width="1.4"/><polyline points="532.8,87.0" fill="none" stroke="#c0392b" stroke-width="1.9"/><rect x="527.8" y="82.0" width="10.0" height="10.0" fill="#c0392b" stroke="#111" stroke-width="1.4"/><text x="584.0" y="48.0" font-size="10" fill="#111" text-anchor="start" font-family="Helvetica,Arial,sans-serif" font-weight="bold">engine</text><rect x="586.0" y="59.0" width="10.0" height="10.0" fill="#1e8449" stroke="#111" stroke-width="1.4"/><text x="602.0" y="67.5" font-size="9.5" fill="#111" text-anchor="start" font-family="Helvetica,Arial,sans-serif">MeanFlow</text><rect x="586.0" y="76.0" width="10.0" height="10.0" fill="#2471a3" stroke="#111" stroke-width="1.4"/><text x="602.0" y="84.5" font-size="9.5" fill="#111" text-anchor="start" font-family="Helvetica,Arial,sans-serif">flow matching</text><rect x="586.0" y="93.0" width="10.0" height="10.0" fill="#c0392b" stroke="#111" stroke-width="1.4"/><text x="602.0" y="101.5" font-size="9.5" fill="#111" text-anchor="start" font-family="Helvetica,Arial,sans-serif">diffusion (DPCC baseline)</text><text x="584.0" y="128.0" font-size="9" fill="#555" text-anchor="start" font-family="Helvetica,Arial,sans-serif">dashed + hollow circles:</text><text x="584.0" y="140.0" font-size="9" fill="#555" text-anchor="start" font-family="Helvetica,Arial,sans-serif">the baseline at the</text><text x="584.0" y="152.0" font-size="9" fill="#555" text-anchor="start" font-family="Helvetica,Arial,sans-serif">PUBLISHED protocol,</text><text x="584.0" y="164.0" font-size="9" fill="#555" text-anchor="start" font-family="Helvetica,Arial,sans-serif">10 episodes per cell.</text><text x="584.0" y="176.0" font-size="9" fill="#555" text-anchor="start" font-family="Helvetica,Arial,sans-serif">Mechanism, not a</text><text x="584.0" y="188.0" font-size="9" fill="#555" text-anchor="start" font-family="Helvetica,Arial,sans-serif">powered comparison.</text><text x="584.0" y="212.0" font-size="9.5" fill="#111" text-anchor="start" font-family="Helvetica,Arial,sans-serif" font-weight="bold">K is inference-time</text><text x="584.0" y="224.0" font-size="9.5" fill="#111" text-anchor="start" font-family="Helvetica,Arial,sans-serif" font-weight="bold">for transport and</text><text x="584.0" y="236.0" font-size="9.5" fill="#111" text-anchor="start" font-family="Helvetica,Arial,sans-serif" font-weight="bold">training-time for</text><text x="584.0" y="248.0" font-size="9.5" fill="#111" text-anchor="start" font-family="Helvetica,Arial,sans-serif" font-weight="bold">diffusion.</text></svg>