<svg xmlns="http://www.w3.org/2000/svg" width="760" height="470" viewBox="0 0 760 470"><rect x="0" y="0" width="760" height="470" fill="#ffffff"/><line x1="125.3" y1="44" x2="125.3" y2="416" stroke="#e6e6e6" stroke-width="1"/><text x="125.3" y="432" font-size="10.5" fill="#222" text-anchor="middle" font-family="Helvetica,Arial,sans-serif">0.02</text><line x1="225.3" y1="44" x2="225.3" y2="416" stroke="#e6e6e6" stroke-width="1"/><text x="225.3" y="432" font-size="10.5" fill="#222" text-anchor="middle" font-family="Helvetica,Arial,sans-serif">0.05</text><line x1="301.0" y1="44" x2="301.0" y2="416" stroke="#e6e6e6" stroke-width="1"/><text x="301.0" y="432" font-size="10.5" fill="#222" text-anchor="middle" font-family="Helvetica,Arial,sans-serif">0.1</text><line x1="376.6" y1="44" x2="376.6" y2="416" stroke="#e6e6e6" stroke-width="1"/><text x="376.6" y="432" font-size="10.5" fill="#222" text-anchor="middle" font-family="Helvetica,Arial,sans-serif">0.2</text><line x1="476.6" y1="44" x2="476.6" y2="416" stroke="#e6e6e6" stroke-width="1"/><text x="476.6" y="432" font-size="10.5" fill="#222" text-anchor="middle" font-family="Helvetica,Arial,sans-serif">0.5</text><line x1="552.3" y1="44" x2="552.3" y2="416" stroke="#e6e6e6" stroke-width="1"/><text x="552.3" y="432" font-size="10.5" fill="#222" text-anchor="middle" font-family="Helvetica,Arial,sans-serif">1</text><line x1="76" y1="382.1" x2="584" y2="382.1" stroke="#e6e6e6" stroke-width="1"/><text x="69" y="385.6" font-size="10.5" fill="#222" text-anchor="end" font-family="Helvetica,Arial,sans-serif">55</text><line x1="76" y1="342.6" x2="584" y2="342.6" stroke="#e6e6e6" stroke-width="1"/><text x="69" y="346.1" font-size="10.5" fill="#222" text-anchor="end" font-family="Helvetica,Arial,sans-serif">60</text><line x1="76" y1="303.2" x2="584" y2="303.2" stroke="#e6e6e6" stroke-width="1"/><text x="69" y="306.7" font-size="10.5" fill="#222" text-anchor="end" font-family="Helvetica,Arial,sans-serif">65</text><line x1="76" y1="263.7" x2="584" y2="263.7" stroke="#e6e6e6" stroke-width="1"/><text x="69" y="267.2" font-size="10.5" fill="#222" text-anchor="end" font-family="Helvetica,Arial,sans-serif">70</text><line x1="76" y1="224.3" x2="584" y2="224.3" stroke="#e6e6e6" stroke-width="1"/><text x="69" y="227.8" font-size="10.5" fill="#222" text-anchor="end" font-family="Helvetica,Arial,sans-serif">75</text><line x1="76" y1="184.8" x2="584" y2="184.8" stroke="#e6e6e6" stroke-width="1"/><text x="69" y="188.3" font-size="10.5" fill="#222" text-anchor="end" font-family="Helvetica,Arial,sans-serif">80</text><line x1="76" y1="145.4" x2="584" y2="145.4" stroke="#e6e6e6" stroke-width="1"/><text x="69" y="148.9" font-size="10.5" fill="#222" text-anchor="end" font-family="Helvetica,Arial,sans-serif">85</text><line x1="76" y1="105.9" x2="584" y2="105.9" stroke="#e6e6e6" stroke-width="1"/><text x="69" y="109.4" font-size="10.5" fill="#222" text-anchor="end" font-family="Helvetica,Arial,sans-serif">90</text><line x1="76" y1="66.5" x2="584" y2="66.5" stroke="#e6e6e6" stroke-width="1"/><text x="69" y="70.0" font-size="10.5" fill="#222" text-anchor="end" font-family="Helvetica,Arial,sans-serif">95</text><rect x="76" y="44" width="508" height="372" fill="none" stroke="#111" stroke-width="1.2"/><text x="330.0" y="454" font-size="11.5" fill="#111" text-anchor="middle" font-family="Helvetica,Arial,sans-serif">avg_time   [ s / control step ]   (log)</text><text x="16" y="230.0" font-size="11.5" fill="#111" text-anchor="middle" font-family="Helvetica,Arial,sans-serif" transform="rotate(-90 16 230.0)">n_steps   [ control steps / episode ]</text><text x="76" y="20" font-size="13" font-weight="bold" fill="#111" font-family="Helvetica,Arial,sans-serif">Fig 3 — Pareto front, `both-hard`</text><text x="76" y="35" font-size="10.5" fill="#555" font-family="Helvetica,Arial,sans-serif">seed 6, n_trials = 20; every engine × K × rule.</text><polyline points="115.0,348.5 157.2,348.5 157.2,351.3 157.4,351.3 157.4,357.6 158.3,357.6 158.3,361.2 386.8,361.2 386.8,376.6" fill="none" stroke="#222" stroke-width="1.3" stroke-dasharray="5,4"/><circle cx="115.0" cy="348.5" r="11.0" fill="none" stroke="#222" stroke-width="1.1"/><circle cx="157.2" cy="351.3" r="11.0" fill="none" stroke="#222" stroke-width="1.1"/><circle cx="157.4" cy="357.6" r="11.0" fill="none" stroke="#222" stroke-width="1.1"/><circle cx="158.3" cy="361.2" r="11.0" fill="none" stroke="#222" stroke-width="1.1"/><circle cx="386.8" cy="376.6" r="11.0" fill="none" stroke="#222" stroke-width="1.1"/><circle cx="114.9" cy="292.5" r="5.5" fill="#ffffff" stroke="#6c3483" stroke-width="1.4"/><text x="122.9" y="285.5" font-size="8.0" fill="#aaa" text-anchor="start" font-family="Helvetica,Arial,sans-serif">A1c</text><rect x="109.5" y="343.0" width="11.0" height="11.0" fill="#6c3483" stroke="#111" stroke-width="1.4"/><text x="123.0" y="341.5" font-size="8.0" fill="#111" text-anchor="start" font-family="Helvetica,Arial,sans-serif" font-weight="bold">A1t</text><circle cx="159.6" cy="124.1" r="5.5" fill="#ffffff" stroke="#6c3483" stroke-width="1.4"/><text x="167.6" y="117.1" font-size="8.0" fill="#aaa" text-anchor="start" font-family="Helvetica,Arial,sans-serif">A2c</text><rect x="152.8" y="355.7" width="11.0" height="11.0" fill="#6c3483" stroke="#111" stroke-width="1.4"/><text x="166.3" y="354.2" font-size="8.0" fill="#111" text-anchor="start" font-family="Helvetica,Arial,sans-serif" font-weight="bold">A2t</text><circle cx="384.9" cy="329.6" r="5.5" fill="#ffffff" stroke="#6c3483" stroke-width="1.4"/><text x="392.9" y="322.6" font-size="8.0" fill="#aaa" text-anchor="start" font-family="Helvetica,Arial,sans-serif">A5c</text><rect x="381.3" y="371.1" width="11.0" height="11.0" fill="#6c3483" stroke="#111" stroke-width="1.4"/><text x="394.8" y="369.6" font-size="8.0" fill="#111" text-anchor="start" font-family="Helvetica,Arial,sans-serif" font-weight="bold">A5t</text><circle cx="438.5" cy="341.8" r="5.5" fill="#ffffff" stroke="#6c3483" stroke-width="1.4"/><text x="446.5" y="334.8" font-size="8.0" fill="#aaa" text-anchor="start" font-family="Helvetica,Arial,sans-serif">A10c</text><rect x="434.0" y="346.2" width="11.0" height="11.0" fill="#6c3483" stroke="#111" stroke-width="1.4"/><text x="447.5" y="344.7" font-size="8.0" fill="#111" text-anchor="start" font-family="Helvetica,Arial,sans-serif">A10t</text><circle cx="547.3" cy="339.1" r="5.5" fill="#ffffff" stroke="#6c3483" stroke-width="1.4"/><text x="555.3" y="332.1" font-size="8.0" fill="#aaa" text-anchor="start" font-family="Helvetica,Arial,sans-serif">A20c</text><rect x="536.6" y="337.1" width="11.0" height="11.0" fill="#6c3483" stroke="#111" stroke-width="1.4"/><text x="550.1" y="335.6" font-size="8.0" fill="#111" text-anchor="start" font-family="Helvetica,Arial,sans-serif">A20t</text><circle cx="119.1" cy="290.9" r="5.5" fill="#ffffff" stroke="#6c3483" stroke-width="1.4"/><text x="127.1" y="283.9" font-size="8.0" fill="#aaa" text-anchor="start" font-family="Helvetica,Arial,sans-serif">a1c</text><rect x="140.1" y="320.2" width="11.0" height="11.0" fill="#6c3483" stroke="#111" stroke-width="1.4"/><text x="153.6" y="318.7" font-size="8.0" fill="#111" text-anchor="start" font-family="Helvetica,Arial,sans-serif">a1t</text><circle cx="156.2" cy="99.2" r="5.5" fill="#ffffff" stroke="#6c3483" stroke-width="1.4"/><text x="164.2" y="92.2" font-size="8.0" fill="#aaa" text-anchor="start" font-family="Helvetica,Arial,sans-serif">a2c</text><rect x="151.9" y="352.1" width="11.0" height="11.0" fill="#6c3483" stroke="#111" stroke-width="1.4"/><text x="165.4" y="350.6" font-size="8.0" fill="#111" text-anchor="start" font-family="Helvetica,Arial,sans-serif" font-weight="bold">a2t</text><circle cx="389.5" cy="341.0" r="5.5" fill="#6c3483" stroke="#111" stroke-width="1.4"/><text x="397.5" y="334.0" font-size="8.0" fill="#111" text-anchor="start" font-family="Helvetica,Arial,sans-serif">a5c</text><rect x="377.2" y="291.4" width="11.0" height="11.0" fill="#6c3483" stroke="#111" stroke-width="1.4"/><text x="390.7" y="289.9" font-size="8.0" fill="#111" text-anchor="start" font-family="Helvetica,Arial,sans-serif">a5t</text><circle cx="444.3" cy="344.6" r="5.5" fill="#6c3483" stroke="#111" stroke-width="1.4"/><text x="452.3" y="337.6" font-size="8.0" fill="#111" text-anchor="start" font-family="Helvetica,Arial,sans-serif">a10c</text><rect x="434.1" y="336.3" width="11.0" height="11.0" fill="#6c3483" stroke="#111" stroke-width="1.4"/><text x="447.6" y="334.8" font-size="8.0" fill="#111" text-anchor="start" font-family="Helvetica,Arial,sans-serif">a10t</text><circle cx="543.6" cy="332.8" r="5.5" fill="#6c3483" stroke="#111" stroke-width="1.4"/><text x="551.6" y="325.8" font-size="8.0" fill="#111" text-anchor="start" font-family="Helvetica,Arial,sans-serif">a20c</text><rect x="540.3" y="328.8" width="11.0" height="11.0" fill="#6c3483" stroke="#111" stroke-width="1.4"/><text x="553.8" y="327.3" font-size="8.0" fill="#111" text-anchor="start" font-family="Helvetica,Arial,sans-serif">a20t</text><circle cx="118.3" cy="268.5" r="5.5" fill="#ffffff" stroke="#1e8449" stroke-width="1.4"/><text x="126.3" y="261.5" font-size="8.0" fill="#aaa" text-anchor="start" font-family="Helvetica,Arial,sans-serif">M1c</text><rect x="112.0" y="341.1" width="11.0" height="11.0" fill="#1e8449" stroke="#111" stroke-width="1.4"/><text x="125.5" y="339.6" font-size="8.0" fill="#111" text-anchor="start" font-family="Helvetica,Arial,sans-serif">M1t</text><circle cx="156.8" cy="155.2" r="5.5" fill="#ffffff" stroke="#1e8449" stroke-width="1.4"/><text x="164.8" y="148.2" font-size="8.0" fill="#aaa" text-anchor="start" font-family="Helvetica,Arial,sans-serif">M2c</text><rect x="151.7" y="345.8" width="11.0" height="11.0" fill="#1e8449" stroke="#111" stroke-width="1.4"/><text x="165.2" y="344.3" font-size="8.0" fill="#111" text-anchor="start" font-family="Helvetica,Arial,sans-serif" font-weight="bold">M2t</text><circle cx="385.4" cy="349.7" r="5.5" fill="#ffffff" stroke="#1e8449" stroke-width="1.4"/><text x="393.4" y="342.7" font-size="8.0" fill="#aaa" text-anchor="start" font-family="Helvetica,Arial,sans-serif">M5c</text><rect x="377.4" y="355.3" width="11.0" height="11.0" fill="#1e8449" stroke="#111" stroke-width="1.4"/><text x="390.9" y="353.8" font-size="8.0" fill="#111" text-anchor="start" font-family="Helvetica,Arial,sans-serif">M5t</text><circle cx="441.5" cy="344.2" r="5.5" fill="#ffffff" stroke="#1e8449" stroke-width="1.4"/><text x="449.5" y="337.2" font-size="8.0" fill="#aaa" text-anchor="start" font-family="Helvetica,Arial,sans-serif">M10c</text><rect x="440.7" y="330.0" width="11.0" height="11.0" fill="#1e8449" stroke="#111" stroke-width="1.4"/><text x="454.2" y="328.5" font-size="8.0" fill="#111" text-anchor="start" font-family="Helvetica,Arial,sans-serif">M10t</text><circle cx="121.1" cy="294.9" r="5.5" fill="#2471a3" stroke="#111" stroke-width="1.4"/><text x="129.1" y="287.9" font-size="8.0" fill="#111" text-anchor="start" font-family="Helvetica,Arial,sans-serif">F1c</text><rect x="118.0" y="301.2" width="11.0" height="11.0" fill="#2471a3" stroke="#111" stroke-width="1.4"/><text x="131.5" y="299.7" font-size="8.0" fill="#111" text-anchor="start" font-family="Helvetica,Arial,sans-serif">F1t</text><circle cx="160.4" cy="251.1" r="5.5" fill="#2471a3" stroke="#111" stroke-width="1.4"/><text x="168.4" y="244.1" font-size="8.0" fill="#111" text-anchor="start" font-family="Helvetica,Arial,sans-serif">F2c</text><rect x="155.4" y="325.3" width="11.0" height="11.0" fill="#2471a3" stroke="#111" stroke-width="1.4"/><text x="168.9" y="323.8" font-size="8.0" fill="#111" text-anchor="start" font-family="Helvetica,Arial,sans-serif">F2t</text><circle cx="326.1" cy="315.0" r="5.5" fill="#2471a3" stroke="#111" stroke-width="1.4"/><text x="334.1" y="308.0" font-size="8.0" fill="#111" text-anchor="start" font-family="Helvetica,Arial,sans-serif">F5c</text><rect x="333.2" y="349.4" width="11.0" height="11.0" fill="#2471a3" stroke="#111" stroke-width="1.4"/><text x="346.7" y="347.9" font-size="8.0" fill="#111" text-anchor="start" font-family="Helvetica,Arial,sans-serif">F5t</text><circle cx="493.8" cy="345.8" r="5.5" fill="#2471a3" stroke="#111" stroke-width="1.4"/><text x="501.8" y="338.8" font-size="8.0" fill="#111" text-anchor="start" font-family="Helvetica,Arial,sans-serif">F20c</text><rect x="485.1" y="341.9" width="11.0" height="11.0" fill="#2471a3" stroke="#111" stroke-width="1.4"/><text x="498.6" y="340.4" font-size="8.0" fill="#111" text-anchor="start" font-family="Helvetica,Arial,sans-serif">F20t</text><circle cx="499.4" cy="347.8" r="5.5" fill="#c0392b" stroke="#111" stroke-width="1.4"/><text x="507.4" y="340.8" font-size="8.0" fill="#111" text-anchor="start" font-family="Helvetica,Arial,sans-serif">D20c</text><text x="598.0" y="48.0" font-size="10" fill="#111" text-anchor="start" font-family="Helvetica,Arial,sans-serif" font-weight="bold">engine</text><circle cx="605.0" cy="64.0" r="5.0" fill="#6c3483" stroke="#111" stroke-width="1.4"/><text x="616.0" y="67.5" font-size="9.5" fill="#111" text-anchor="start" font-family="Helvetica,Arial,sans-serif">α-Flow (AF)</text><circle cx="605.0" cy="81.0" r="5.0" fill="#1e8449" stroke="#111" stroke-width="1.4"/><text x="616.0" y="84.5" font-size="9.5" fill="#111" text-anchor="start" font-family="Helvetica,Arial,sans-serif">MeanFlow (MF)</text><circle cx="605.0" cy="98.0" r="5.0" fill="#2471a3" stroke="#111" stroke-width="1.4"/><text x="616.0" y="101.5" font-size="9.5" fill="#111" text-anchor="start" font-family="Helvetica,Arial,sans-serif">naive FM</text><circle cx="605.0" cy="115.0" r="5.0" fill="#c0392b" stroke="#111" stroke-width="1.4"/><text x="616.0" y="118.5" font-size="9.5" fill="#111" text-anchor="start" font-family="Helvetica,Arial,sans-serif">DPCC diffusion</text><text x="598.0" y="148.0" font-size="10" fill="#111" text-anchor="start" font-family="Helvetica,Arial,sans-serif" font-weight="bold">selection rule</text><circle cx="605.0" cy="164.0" r="5.0" fill="#777" stroke="#111" stroke-width="1.4"/><text x="616.0" y="167.5" font-size="9.5" fill="#111" text-anchor="start" font-family="Helvetica,Arial,sans-serif">dpcc-c-tightened</text><rect x="600.0" y="176.0" width="10.0" height="10.0" fill="#777" stroke="#111" stroke-width="1.4"/><text x="616.0" y="184.5" font-size="9.5" fill="#111" text-anchor="start" font-family="Helvetica,Arial,sans-serif">dpcc-t-tightened</text><text x="598.0" y="212.0" font-size="9" fill="#555" text-anchor="start" font-family="Helvetica,Arial,sans-serif">hollow = outside</text><text x="598.0" y="224.0" font-size="9" fill="#555" text-anchor="start" font-family="Helvetica,Arial,sans-serif">S&amp;C band (0.05)</text><text x="598.0" y="242.0" font-size="9" fill="#555" text-anchor="start" font-family="Helvetica,Arial,sans-serif">ring = on the</text><text x="598.0" y="254.0" font-size="9" fill="#555" text-anchor="start" font-family="Helvetica,Arial,sans-serif">Pareto front</text></svg>