<svg xmlns="http://www.w3.org/2000/svg" width="760" height="400" viewBox="0 0 760 400"><rect x="0" y="0" width="760" height="400" fill="#ffffff"/><polygon points="480.7,89.1 134.6,262.9 279.3,382.0 625.4,208.2" fill="#eceef0" fill-opacity="1.0" stroke="#bdbdbd" stroke-width="0.8" stroke-linejoin="round"/><polygon points="474.8,119.8 474.8,48.7 478.6,51.8 478.6,122.9" fill="#727577" fill-opacity="0.5" stroke="#65676a" stroke-width="0.6" stroke-linejoin="round"/><polyline points="480.7,89.0 625.4,208.1" fill="none" stroke="#cfcfcf" stroke-width="0.7"/><polygon points="474.8,119.8 478.6,122.9 356.8,184.1 353.0,181.0" fill="#727577" fill-opacity="0.5" stroke="#65676a" stroke-width="0.6" stroke-linejoin="round"/><polyline points="431.9,113.5 576.7,232.6" fill="none" stroke="#cfcfcf" stroke-width="0.7"/><polygon points="474.8,119.8 353.0,181.0 353.0,109.9 474.8,48.7" fill="#a3a6aa" fill-opacity="0.5" stroke="#65676a" stroke-width="0.6" stroke-linejoin="round"/><polyline points="480.7,89.0 134.6,262.9" fill="none" stroke="#cfcfcf" stroke-width="0.7"/><polygon points="512.9,151.1 512.9,80.0 516.7,83.2 516.7,154.3" fill="#727577" fill-opacity="0.5" stroke="#65676a" stroke-width="0.6" stroke-linejoin="round"/><polygon points="478.6,122.9 478.6,51.8 356.8,113.0 356.8,184.1" fill="#727577" fill-opacity="0.5" stroke="#65676a" stroke-width="0.6" stroke-linejoin="round"/><polygon points="512.9,151.1 516.7,154.3 394.9,215.5 391.0,212.3" fill="#727577" fill-opacity="0.5" stroke="#65676a" stroke-width="0.6" stroke-linejoin="round"/><polyline points="383.2,138.0 527.9,257.1" fill="none" stroke="#cfcfcf" stroke-width="0.7"/><polygon points="474.8,48.7 353.0,109.9 356.8,113.0 478.6,51.8" fill="#9c9fa3" fill-opacity="0.5" stroke="#65676a" stroke-width="0.6" stroke-linejoin="round"/><polygon points="512.9,151.1 391.0,212.3 391.0,141.2 512.9,80.0" fill="#a3a6aa" fill-opacity="0.5" stroke="#65676a" stroke-width="0.6" stroke-linejoin="round"/><polyline points="518.8,120.4 172.7,294.2" fill="none" stroke="#cfcfcf" stroke-width="0.7"/><polygon points="353.0,181.0 356.8,184.1 356.8,113.0 353.0,109.9" fill="#8e9194" fill-opacity="0.5" stroke="#65676a" stroke-width="0.6" stroke-linejoin="round"/><polygon points="516.7,154.3 516.7,83.2 394.9,144.4 394.9,215.5" fill="#727577" fill-opacity="0.5" stroke="#65676a" stroke-width="0.6" stroke-linejoin="round"/><polyline points="334.4,162.5 479.2,281.6" fill="none" stroke="#cfcfcf" stroke-width="0.7"/><polygon points="512.9,80.0 391.0,141.2 394.9,144.4 516.7,83.2" fill="#9c9fa3" fill-opacity="0.5" stroke="#65676a" stroke-width="0.6" stroke-linejoin="round"/><polyline points="556.9,151.7 210.7,325.5" fill="none" stroke="#cfcfcf" stroke-width="0.7"/><polygon points="391.0,212.3 394.9,215.5 394.9,144.4 391.0,141.2" fill="#8e9194" fill-opacity="0.5" stroke="#65676a" stroke-width="0.6" stroke-linejoin="round"/><polyline points="285.7,187.0 430.4,306.1" fill="none" stroke="#cfcfcf" stroke-width="0.7"/><polyline points="595.0,183.1 248.8,356.9" fill="none" stroke="#cfcfcf" stroke-width="0.7"/><polyline points="236.9,211.5 381.7,330.5" fill="none" stroke="#cfcfcf" stroke-width="0.7"/><polygon points="365.1,255.6 365.1,184.5 369.0,187.7 369.0,258.8" fill="#727577" fill-opacity="0.5" stroke="#65676a" stroke-width="0.6" stroke-linejoin="round"/><polygon points="365.1,255.6 369.0,258.8 247.1,320.0 243.3,316.8" fill="#727577" fill-opacity="0.5" stroke="#65676a" stroke-width="0.6" stroke-linejoin="round"/><polyline points="188.2,235.9 332.9,355.0" fill="none" stroke="#cfcfcf" stroke-width="0.7"/><polygon points="365.1,255.6 243.3,316.8 243.3,245.7 365.1,184.5" fill="#a3a6aa" fill-opacity="0.5" stroke="#65676a" stroke-width="0.6" stroke-linejoin="round"/><polygon points="403.2,287.0 403.2,215.9 407.0,219.0 407.0,290.1" fill="#727577" fill-opacity="0.5" stroke="#65676a" stroke-width="0.6" stroke-linejoin="round"/><polygon points="369.0,258.8 369.0,187.7 247.1,248.9 247.1,320.0" fill="#727577" fill-opacity="0.5" stroke="#65676a" stroke-width="0.6" stroke-linejoin="round"/><polygon points="403.2,287.0 407.0,290.1 285.2,351.3 281.4,348.2" fill="#727577" fill-opacity="0.5" stroke="#65676a" stroke-width="0.6" stroke-linejoin="round"/><polyline points="139.4,260.4 284.2,379.5" fill="none" stroke="#cfcfcf" stroke-width="0.7"/><polygon points="365.1,184.5 243.3,245.7 247.1,248.9 369.0,187.7" fill="#9c9fa3" fill-opacity="0.5" stroke="#65676a" stroke-width="0.6" stroke-linejoin="round"/><polygon points="403.2,287.0 281.4,348.2 281.4,277.1 403.2,215.9" fill="#a3a6aa" fill-opacity="0.5" stroke="#65676a" stroke-width="0.6" stroke-linejoin="round"/><polygon points="243.3,316.8 247.1,320.0 247.1,248.9 243.3,245.7" fill="#8e9194" fill-opacity="0.5" stroke="#65676a" stroke-width="0.6" stroke-linejoin="round"/><polygon points="407.0,290.1 407.0,219.0 285.2,280.2 285.2,351.3" fill="#727577" fill-opacity="0.5" stroke="#65676a" stroke-width="0.6" stroke-linejoin="round"/><polygon points="403.2,215.9 281.4,277.1 285.2,280.2 407.0,219.0" fill="#9c9fa3" fill-opacity="0.5" stroke="#65676a" stroke-width="0.6" stroke-linejoin="round"/><polygon points="281.4,348.2 285.2,351.3 285.2,280.2 281.4,277.1" fill="#8e9194" fill-opacity="0.5" stroke="#65676a" stroke-width="0.6" stroke-linejoin="round"/></svg>